<mxfile host="Electron" agent="Mozilla/5.0 (X11; Linux x86_64) AppleWebKit/537.36 (KHTML, like Gecko) draw.io/28.1.2 Chrome/138.0.7204.243 Electron/37.4.0 Safari/537.36" version="28.1.2">
  <diagram name="Page-1" id="9v7Pz3pgo3-XPywYmLFi">
    <mxGraphModel dx="4132" dy="2470" grid="1" gridSize="10" guides="1" tooltips="1" connect="1" arrows="1" fold="1" page="1" pageScale="1" pageWidth="3200" pageHeight="1400" math="0" shadow="0">
      <root>
        <mxCell id="0" />
        <mxCell id="1" parent="0" />
        <mxCell id="bOFY-O5MOT7gPgmoRCPy-1" value="" style="shape=image;verticalLabelPosition=bottom;labelBackgroundColor=default;verticalAlign=top;aspect=fixed;imageAspect=0;image=data:image/png,iVBORw0KGgoAAAANSUhEUgAAA1AAAASwCAYAAAD1+Ks9AAAAAXNSR0IArs4c6QAAIABJREFUeF7s3Qn8ddXc9/HvgzRJ0iAyJUkZMpQKTSophSSzhAakoiJJ0YSUilIRjaYGikpKhgxNVDQgkialklJKyP0863u3rsfV5X+d9dvn7HPOHj7r9fK6uc/ae6/13vv6n/07a63f+j+iIIAAAggggAACCCCAAAIIhAT+T6gWlRBAAAEEEEAAAQQQQAABBEQAxUOAAAIIIIAAAggggAACCAQFCKCCUFRDAAEEEEAAAQQQQAABBAigeAYQQAABBBBAAAEEEEAAgaAAAVQQimoIIIAAAggggAACCCCAAAEUzwACCCCAAAIIIIAAAgggEBQggApCUQ0BBBBAAAEEEEAAAQQQIIDiGUAAAQQQQAABBBBAAAEEggIEUEEoqiGAAAIIIIAAAggggAACBFA8AwgggAACCCCAAAIIIIBAUIAAKghFNQQQQAABBBBAAAEEEECAAIpnAAEEEEAAAQQQQAABBBAIChBABaGohgACCCCAAAIIIIAAAggQQPEMIIAAAggggAACCCCAAAJBAQKoIBTVEEAAAQQQQAABBBBAAAECKJ4BBBBAAAEEEEAAAQQQQCAoQAAVhKIaAggggAACCCCAAAIIIEAAxTOAAAIIIIAAAggggAACCAQFCKCCUFRDAAEEEEAAAQQQQAABBAigeAYQQAABBBBAAAEEEEAAgaAAAVQQimoIIIAAAggggAACCCCAAAEUzwACCCCAAAIIIIAAAgggEBQggApCUQ0BBBBAAAEEEEAAAQQQIIDiGUAAAQQQQAABBBBAAAEEggIEUEEoqiGAAAIIIIAAAggggAACBFA8AwgggAACCCCAAAIIIIBAUIAAKghFNQQQQAABBBBAAAEEEECAAIpnAAEEEEAAAQQQQAABBBAIChBABaGohgACCCCAAAIIIIAAAggQQPEMIIAAAggggAACCCCAAAJBAQKoIBTVEEAAAQQQQAABBBBAAAECKJ4BBBBAAAEEEEAAAQQQQCAoQAAVhKIaAggggAACCCCAAAIIIEAAxTOAAAIIIIAAAggggAACCAQFCKCCUFRDAAEEEEAAAQQQQAABBAigeAYQQAABBBBAAAEEEEAAgaAAAVQQimoIIIAAAggggAACCCCAAAEUzwACCCCAAAIIIIAAAgggEBQggApCUQ0BBBBAAAEEEEAAAQQQIIDiGUAAAQQQQAABBBBAAAEEggIEUEEoqiGAAAIIIIAAAggggAACBFA8AwgggAACCCCAAAIIIIBAUIAAKghFNQQQQAABBBBAAAEEEECAAIpnAAEEEEAAAQQQQAABBBAIChBABaGohgACCCCAAAIIIIAAAggQQPEMIIAAAggggAACCCCAAAJBAQKoIBTVEEAAAQQQQAABBBBAAAECKJ4BBBBAAAEEEEAAAQQQQCAoQAAVhKIaAggggAACCCCAAAIIIEAAxTOAAAIIIIAAAggggAACCAQFCKCCUFRDAAEEEEAAAQQQQAABBAigeAYQQAABBBBAAAEEEEAAgaAAAVQQimoIIIAAAggggAACCCCAAAEUzwACCCCAAAIIIIAAAgggEBQggApCUQ0BBBBAAAEEEEAAAQQQIIDiGUAAAQQQQAABBBBAAAEEggIEUEEoqiGAAAIIIIAAAggggAACBFA8AwgggAACCCCAAAIIIIBAUIAAKghFNQQQQAABBBBAAAEEEECAAIpnAAEEEEAAAQQQQAABBBAIChBABaGohgACCCCAAAIIIIAAAggQQPEMIIAAAggggAACCCCAAAJBAQKoIBTVEEAAAQQQQAABBBBAAAECKJ4BBBBAAAEEEEAAAQQQQCAoQAAVhKIaAggggAACCCCAAAIIIEAAxTOAAAIIIIAAAggggAACCAQFCKCCUFRDAAEEEEAAAQQQQAABBAigeAYQQAABBBBAAAEEEEAAgaAAAVQQimoIIIAAAggggAACCCCAAAEUzwACCCCAAAIIIIAAAgggEBQggApCUQ0BBBBAAAEEEEAAAQQQIIDiGUAAAQQQQAABBBBAAAEEggIEUEEoqiGAAAIIIIAAAggggAACBFA8AwgggAACCCCAAAIIIIBAUIAAKghFNQQQQAABBBBAAAEEEECAAIpnAAEEEEAAAQQQQAABBBAIChBABaGohgACCCCAAAIIIIAAAggQQPEMIIAAAggggAACCCCAAAJBAQKoIBTVEEAAAQQQQAABBBBAAAECKJ4BBBBAAAEEEEAAAQQQQCAoQAAVhKIaAggggAACCCCAAAIIIEAAxTOAAAIIIIAAAggggAACCAQFCKCCUFRDAAEEEEAAAQQQQAABBAigeAYQQAABBBBAAAEEEEAAgaAAAVQQimoIIIAAAggggAACCCCAAAEUzwACCCCAAAIIIIAAAgggEBQggApCUQ0BBBBAAAEEEEAAAQQQIIDiGUAAAQQQQAABBBBAAAEEggIEUEEoqiGAAAIIIIAAAggggAACBFA8AwgggAACCCCAAAIIIIBAUIAAKghFNQQQQAABBBBAAAEEEECAAIpnAAEEEEAAAQQQQAABBBAIChBABaGohgACCCCAAAIIIIAAAggQQPEMIIAAAggggAACCCCAAAJBAQKoIBTVEEAAAQQQQAABBBBAAAECKJ4BBBBAAAEEEEAAAQQQQCAoQAAVhKIaAggggAACCCCAAAIIIEAAxTOAAAIIIIAAAggggAACCAQFCKCCUFRDAAEEEEAAAQQQQAABBAigeAYQQAABBBBAAAEEEEAAgaAAAVQQimoIIIAAAggggAACCCCAAAEUzwACCCCAAAIIIIAAAgggEBQggApCUQ0BBBBAAAEEEEAAAQQQIIDiGUAAAQQQQAABBBBAAAEEggIEUEEoqiGAAAIIIIAAAggggAACBFA8AwgggAACCCCAAAIIIIBAUIAAKghFNQQQQAABBBBAAAEEEECAAIpnAAEEEEAAAQQQQAABBBAIChBABaGohgACCCCAAAIIIIAAAggQQPEMIIAAAggggAACCCCAAAJBAQKoIBTVEEAAAQQQQAABBBBAAAECKJ4BBBBAAAEEEEAAAQQQQCAoQAAVhKIaAggggAACCCCAAAIIIEAAxTOAAAIIIIAAAggggAACCAQFCKCCUFRDAAEEEEAAAQQQQAABBAigeAYQQAABBBBAAAEEEEAAgaAAAVQQimoIIIAAAggggAACCCCAAAEUzwACCCCAAAIIIIAAAgggEBQggApCUQ0BBBBAAAEEEEAAAQQQIIDiGUAAAQQQQAABBBBAAAEEggIEUEEoqiGAAAIIIIAAAggggAACBFA8AwgggAACCCCAAAIIIIBAUIAAKghFNQQQQAABBBBAAAEEEECAAIpnAAEEEEAAAQQQQAABBBAIChBABaGohgACCCCAAAIIIIAAAggQQPEMIIAAAggggAACCCCAAAJBAQKoIBTVEEAAAQQQQAABBBBAAAECKJ4BBBBAAAEEEEAAAQQQQCAoQAAVhKIaAggggAACCCCAAAIIIEAAxTOAAAIIIIAAAggggAACCAQFCKCCUFRDAAEEEEAAAQQQQAABBAigeAYQQAABBBBAAAEEEEAAgaAAAVQQimoIIIAAAggggAACCCCAAAEUzwACCCCAAAIIIIAAAgggEBQggApCUQ0BBBBAAAEEEEAAAQQQIIDiGUAAAQQQQAABBBBAAAEEggIEUEEoqiGAAAIIIIAAAggggAACBFA8AwgggAACCCCAAAIIIIBAUIAAKghFNQQQQAABBBBAAAEEEECAAIpnAAEEEEAAAQQQQAABBBAIChBABaGohgACCCCAAAIIIIAAAggQQPEMIIAAAggggAACCCCAAAJBAQKoIBTVEEAAAQQQQAABBBBAAAECKJ4BBBBAAAEEEEAAAQQQQCAoQAAVhKIaAggggAACCCCAAAIIIEAAxTOAAAIIIIAAAggggAACCAQFCKCCUFRDAAEEEEAAAQQQQAABBAigeAYQQAABBBBAAAEEEEAAgaAAAVQQimoIIIAAAggggAACCCCAAAEUzwACCCCAAAIIIIAAAgggEBQggApCUQ0BBBBAAAEEEEAAAQQQIIDiGUAAAQQQQAABBBBAAAEEggIEUEEoqiGAAAIIIIAAAggggAACBFA8AwgggAACCCCAAAIIIIBAUIAAKghFNQQQQAABBBBAAAEEEECAAIpnAAEEEEAAAQQQQAABBBAIChBABaGohgACCCCAAAIIIIAAAggQQPEMIIAAAggggAACCCCAAAJBAQKoIBTVEEAAAQQQQAABBBBAAAECKJ4BBBBAAAEEEEAAAQQQQCAoQAAVhKIaAggggAACCCCAAAIIIEAAxTOAAAIIIIAAAggggAACCAQFCKCCUFRDAAEEEEAAAQQQQAABBAigeAYQQAABBBBAAAEEEEAAgaAAAVQQimoIIIAAAggggAACCCCAAAEUzwACCCCAAAIIIIAAAgggEBQggApCUQ0BBBBAAAEEEEAAAQQQIIDiGUAAAQQQQAABBBBAAAEEggIEUEEoqiGAAAIIIIAAAggggAACBFA8AwgggAACCCCAAAIIIIBAUIAAKghFNQQQQAABBBBAAAEEEECAAIpnAAEEEEAAAQQQQAABBBAIChBABaGohgACCCCAAAIIIIAAAggQQPEMIIAAAggggAACCCCAAAJBAQKoIBTVEEAAAQQQQAABBBBAAAECKJ4BBBBAAAEEEEAAAQQQQCAoQAAVhKIaAggggAACCCCAAAIIIEAAxTOAAAIIIIAAAggggAACCAQFCKCCUFRDAAEEEEAAAQQQQAABBAigeAYQQAABBBBAAAEEEEAAgaAAAVQQimoIIIAAAggggAACCCCAAAEUzwACCCCAAAIIIIAAAgggEBQggApCUQ0BBBBAAAEEEEAAAQQQIIDiGUAAAQQQQAABBBBAAAEEggIEUEEoqiGAAAIIIIAAAggggAACBFA8AwgggAACCCCAAAIIIIBAUIAAKghFNQQQQAABBBBAAAEEEECAAIpnAAEEEEAAAQQQQAABBBAIChBABaGohgACCCCAAAIIIIAAAggQQPEMIIAAAggggAACCCCAAAJBAQKoIBTVEEAAAQQQQAABBBBAAAECKJ4BBBBAAAEEEEAAAQQQQCAoQAAVhKIaAggggAACCCCAAAIIIEAAxTOAAAIIIIAAAggggAACCAQFCKCCUFRDAAEEEEAAAQQQQAABBAigeAYQQAABBBBAAAEEEEAAgaAAAVQQimoIIIAAAggggAACCCCAAAEUzwACCCCAAAIIIIAAAgggEBQggApCUQ0BBBBAAAEEEEAAAQQQIIDiGUAAAQQQQAABBBBAAAEEggIEUEEoqiGAAAIIIIAAAggggAACBFA8AwgggAACCCCAAAIIIIBAUIAAKghFNQQQQAABBBBAAAEEEECAAIpnAAEEEEAAAQQQQAABBBAIChBABaGohgACCCCAAAIIIIAAAggQQPEMIIAAAggggAACCCCAAAJBAQKoIBTVEEAAAQQQQAABBBBAAAECKJ4BBBBAAAEEEEAAAQQQQCAoQAAVhKIaAggggAACCCCAAAIIIEAAxTOAAAIIIIAAAggggAACCAQFCKCCUFRDAAEEEEAAAQQQQAABBAigeAYQQAABBBBAAAEEEEAAgaAAAVQQimoIIIAAAggggAACCCCAAAEUzwACCCCAAAIIIIAAAgggEBQggApCUQ0BBBBAAAEEEEAAAQQQIIDiGUAAAQQQQAABBBBAAAEEggIEUEEoqiGAAAIIIIAAAggggAACBFA8AwgggAACCCCAAAIIIIBAUIAAKghFNQQQQAABBBBAAAEEEECAAIpnAAEEEEAAAQQQQAABBBAIChBABaGohgACCCCAAAIIIIAAAggQQPEMIIAAAggggAACCCCAAAJBAQKoIBTVEEAAAQQQQAABBBBAAAECKJ4BBBBAAAEEEEAAAQQQQCAoQAAVhKIaAggggAACCCCAAAIIIEAAxTOAAAIIIIAAAggggAACCAQFCKCCUFRDAAEEEEAAAQQQQAABBAigeAYQQAABBBBAAAEEEEAAgaAAAVQQimoIIIAAAggggAACCCCAAAEUzwACCCCAAAIIIIAAAgggEBQggApCUQ0BBBBAAAEEEEAAAQQQIIDiGUAAAQQQQAABBBBAAAEEggIEUEEoqiGAAAIIIIAAAggggAACBFA8AwgggAACCCCAAAIIIIBAUIAAKghFNQQQQAABBBBAAAEEEECAAIpnAAEEEEAAAQQQQAABBBAIChBABaGohgACCCCAAAIIIIAAAggQQPEMIIAAAggggAACCCCAAAJBAQKoIBTVEEAAAQQQQAABBBBAAAECKJ4BBBBAAAEEEEAAAQQQQCAoQAAVhKIaAggggAACCCCAAAIIIEAAxTOAAAIIIIAAAggggAACCAQFCKCCUFRDAAEEEEAAAQQQQAABBAigeAYQQAABBBBAAAEEEEAAgaAAAVQQimoIIIAAAggggAACCCCAAAEUzwACCCCAAAIIIIAAAgggEBQggApCUQ0BBBBAAAEEEEAAAQQQIIDiGUAAAQQQQAABBBBAAAEEggIEUEEoqiGAAAIIIIAAAggggAACBFA8AwgggAACCCCAAAIIIIBAUIAAKghFNQQQQAABBBBAAAEEEECAAIpnAAEEEEAAAQQQQAABBBAIChBABaGohgACCCCAAAIIIIAAAggQQPEMIIAAAggggAACCCCAAAJBAQKoIBTVEEAAAQQQQAABBBBAAAECKJ4BBBBAAAEEEEAAAQQQQCAoQAAVhKIaAggggAACCCCAAAIIIEAAxTOAAAIIIIAAAggggAACCAQFCKCCUFRDAAEEEEAAAQQQQAABBAigeAYQQAABBBBAAAEEEEAAgaAAAVQQimoIIIAAAggggAACCCCAAAEUzwACCCCAAAIIIIAAAgggEBQggApCUQ0BBBBAAAEEEEAAAQQQIIDiGUAAAQQQQAABBBBAAAEEggIEUEEoqiGAAAIIIIAAAggggAACBFA8AwgggAACCCCAAAIIIIBAUIAAKghFNQQQQAABBBBAAAEEEECAAIpnAAEEEEAAAQQQQAABBBAIChBABaGohgACCCCAAAIIIIAAAggQQPEMIIAAAggggAACCCCAAAJBAQKoIBTVEEAAAQQQQAABBBBAAAECKJ4BBBBAAAEEEEAAAQQQQCAoQAAVhKIaAggggAACCCCAAAIIIEAAxTOAAAIIIIAAAggggAACCAQFCKCCUFRDAAEEEEAAAQQQQAABBAigeAYQQAABBBBAAAEEEEAAgaAAAVQQimoIIIAAAggggAACCCCAAAEUzwACCCCAAAIIIIAAAgggEBQggApCUQ0BBBBAAAEEEEAAAQQQIIDiGUAAAQQQQAABBBBAAAEEggIEUEEoqiGAAAIIIIAAAggggAACBFA8AwgggAACCCCAAAIIIIBAUIAAKghFNQQQQAABBBBAAAEEEECAAIpnAAEEEEAAAQQQQAABBBAIChBABaGohgACCCCAAAIIIIAAAggQQPEMIIAAAggggAACCCCAAAJBAQKoIBTVEEAAAQQQQAABBBBAAAECKJ4BBBBAAAEEEEAAAQQQQCAoQAAVhKIaAggggAACCCCAAAIIIEAAxTOAAAIIIIAAAggggAACCAQFCKCCUFRDAAEEEEAAAQQQQAABBAigeAYQQAABBBBAAAEEEEAAgaAAAVQQimoIIIAAAggggAACCCCAAAEUzwACCCCAAAIIIIAAAgggEBQggApCUQ0BBBBAAAEEEEAAAQQQIIDiGUAAAQQQQAABBBBAAAEEggIEUEEoqiGAAAIIIIAAAggggAACBFA8AwgggAACCCCAAAIIIIBAUIAAKghFNQQQQAABBBBAAAEEEECAAIpnAAEEEEAAAQQQQAABBBAIChBABaGohgACCCDQOYF5JS0kaUFJC0haWNKTJC0uaRFJj5D0EEn/lnSvpLsk3SzpJkm35//fPZLulnRf53ToEAIIIIDAjAIEUDwYCCCAAAJ9ElhS0gslrSTp6ZIeJ2mJHDQ5kIp+L/4tB1G3SvqjpN9LOl/SBfl/98mUviKAAAK9Eoh+UfQKhc4igAACCHRG4GF5JGl9Se+StHoeVRpnB8+TdLikMyQ50PrXOC/GuRFAAAEEJitAADVZb66GAAIIIDAZgcdI2kzSepJWSQGN//eky215ROocSadIumHSDeB6CCCAAAL1CxBA1W/KGRFAAAEEpifgaXgfkfQ+SR59akrxOqoDJe2b2vbXpjSKdiCAAAIIVBcggKpuxhEIIIAAAs0TWFnS5pI2lfTY5jXvf1v0f9M0wlsknSTpGEmXNLSdNAsBBBBAYIAAARSPBwIIIIBAmwWcRW/PlB1vG0nzV0gCMc0+O5ByVj8HUbtIciY/CgIIIIBASwQIoFpyo2gmAggggMCDBJxi3Ikhdpf07JYETnPeQgdSl0r6mKRvp2Dq79xjBBBAAIHmCxBANf8e0UIEEEAAgQcLOHj6ak4Q4b2c2l7+Kek0SW/Le0q1vT+0HwEEEOi0AAFUp28vnUMAAQQ6JeBNbV8h6YgpZdUbN+b1OdX6WXnz3nFfj/MjgAACCAwhQAA1BBqHIIAAAghMXMAjTZ7q5lGaRWq+uqfS3SXpqpSI4hpJN0q6I////kfSQyUtIOnRkpaStHQaAVsu/++6v0f/Iumg3Fdfm4IAAggg0DCBuv/wN6x7NAcBBBBAoAMCzqrnoOJ1NfTFwZL3Z/qjpMsknSvJG99eXXHUx6NhT8p7TK2b9nlaUdLj88hYHd+tx6cAbkdJf66hz5wCAQQQQKBGgTr+yNfYHE6FAAIIIIDAgwSekQKTL0hymnKPBI1SfppGj47NiRs80uTRnrrKwpKWkfRcSa+X9BJJDrKGLfdL+l4ecbt52JNwHAIIIIBA/QIEUPWbckYEEEAAgXoEHDx9PU+XG+aMngJ3awpmfpSCmb0kXTnMSYY85pmSdk6jWy/No1LDBlO/SKNjb55w24fsMochgAAC/RAggOrHfaaXCCCAQNsEXpCmyB0tafkhU5R7TdMhkk6WdIUkj+hMunjEzIGUN/d9p6TFh2iApxz+StIWkn4+xPEcggACCCBQswABVM2gnA4BBBBAYGQBJ2k4W9JThzjTv/Kx70gZ7W4Z4vhxHfIYScelNVdrS5pniIvcJGnjlIXwkiGO5RAEEEAAgRoFCKBqxORUCCCAAAIjCzwxjTqdkJMzVPmO8kiNR2g+Kel0SfeN3JL6T+BMghum0bAP57VSVfrn1vwuj2R9v/6mcUYEEEAAgahA1T/e0fNSDwEEEEAAgaoCj5L03RQArVT1wBx0bZ1Tjw9x+EQPWShPT/TUvqrlbkmb5AQTVY+lPgIIIIBADQIEUDUgcgoEEEAAgZEF/H30OUlvr5htz+nI98mZ+qaxzmnYjs+X1zV9JG0MvGTFk3g63y6SviKJvaIq4lEdAQQQGFWAAGpUQY5HAAEEEKhDYHtJB1YMnu6RtJ6kCyR5Cl8bi/eQOjMFgQ+r2Hiv9doqp2WveCjVEUAAAQRGESCAGkWPYxFAAAEE6hBYI60J+qYkT+GLlkvzCI43w217eV4eTXpaxYyD3sfq/Wn/KW+664CKggACCCAwAQECqAkgcwkEEEAAgYEC3uB2tQrBw/WS1kwB1LUdcvW6L2+c+8iKffpncttT0n6S/l3xWKojgAACCAwhQAA1BBqHIIAAAgjUIuB9kvbI/4mc0NP0POLkzWm9QW7XyrPzxsHLVAgmbfD3HEQdmkakPK2RggACCCAwRgECqDHicmoEEEAAgYECnrrnlOPOShcpd0raIK95itRvY511JH1jiJEoT+E7QtIHGprCvY33gjYjgAACMwoQQPFgIIAAAghMQ+Dhkk5MG8O+IjjacrukV6akEZ7u1/WyZVoPdrCkBSt21FP4fNzekv5a8ViqI4AAAggEBQigglBUQwABBBCoVWDjHEA5nXep/EPSh3KWvlLdLnzu7+aPpsQQu1XMSui+O625NyLeQdJtXcCgDwgggEDTBAigmnZHaA8CCCDQfQEnSrha0uKBrnrd02mSXivJgVRfyqI5vfnKQ3TYZt+S9A5JHrmjIIAAAgjUKEAAVSMmp0IAAQQQCAm8S9JhoZr/SRpxS7B+l6o5M985khYeslNnS3qnpD8MeTyHIYAAAgjMIEAAxWOBAAIIIDBJAY8+OXHE6oGLesTpNbl+oHonq+wk6ZOSHjJk787Pmw2TnW9IQA5DAAEE5hQggOKZQAABBBCYpMD6edPceQMX/Xaeutfnl/8l83S8YabyzSK+WNLWKWHHJQFzqiCAAAIIFAQIoHhEEEAAAQQmKXCRpEgw4IxyT5N0zSQb19BrvU3SUSO2zY7PIzvfiIocjgACCARTxwKFAAIIIIBAHQKrpk1wzwt89zgJwr6Sdq/joh04h0frzk1JJVYZsS83S3qTpB+MeB4ORwABBHotwAhUr28/nUcAAQQmKnCQpPcGrugX/ZdI+k2gbl+qvFSSpzQ+dMQOOxnHepIuH/E8HI4AAgj0VoAAqre3no4jgAACExVYLKcj9yhUqXxd0hvSPkj/KlXs0ef2c/KNUUehTHaXpDfmNOneN4qCAAIIIFBBgACqAhZVEUAAAQSGFlgxT99bIHCG1SRdEKjXpyr+vv5I/k8d/f6LpC1yUFvH+TgHAggg0BsBAqje3Go6igACCExV4MNp+tnegRY4cHIARflvgRUk/VLSw2rC8Qif9+Q6jtG+mkQ5DQII9EKAAKoXt5lOIoAAAlMXuELSMwqtcPKI10o6eeqtbWYD/J3tBBBr1tg8p4h3cHtwjefkVAgggECnBQigOn176RwCCCDQCIFlJF0daMl1ktZKU8uuDdTtaxWvDftyIJNhFR8Hrp4euL+k+6ocSF0EEECgjwIEUH286/QZAQQQmKzAlpKODFySjXPLSE+v19BWAAAgAElEQVSQ5I1xFy9XrVTjXknOkujU8Q6oKAgggAACcxEggOLRQAABBBAYt4BHTJz1rVT2TBU+WqrU888XShvifiuP1JUoHAhV/Z53oPt+Ntwt0fI5Agj0WaDqH9Y+W9F3BBBAAIHqAs669/1g+m3vdfTd6pfo1RHeB+qzkrYJ9PqPkh4r6SGBurOq/FPS1yRtLekfFY6jKgIIINAbAQKo3txqOooAAghMReBxOfHB0wpX935Ei6aNdu+cSivbddEdgkkfjpL0yLRp7qZDjER5OuXrJd3dLhpaiwACCIxfgABq/MZcAQEEEOizwPJputkPJS1RQLhc0rP7DFWh7+tL+k6g/vckbZZGoPbKI0oPDxwzq8q/JTmIequkOyocR1UEEECg8wIEUJ2/xXQQAQQQmKrAC/IIVGkD3c9JeudUW9qei3s076pAc69MQZD9vd/TAZK2DxwzZxVfZ3VJtw1xLIcggAACnRQggOrkbaVTCCCAQGMENpB0RmAKmYMnB1GUssD8kv4WWNvk1PEOfv4kaT5JO0r6UEpXvmD5Ev+/hhNR/FTS2yX9rsJxVEUAAQQ6K0AA1dlbS8cQQACBRgi8TZLX4pSKX/R/UqrE5/9f4KacIGIQyQ3JdN2UAfG3uZK/83eW9DFJD6tg6SDqzynBx4sIoiqoURUBBDorQADV2VtLxxBAAIFGCOyaX9gHNcbrbTwt7ZpGtLgdjfCo0AsLTb1Z0sskXTZbPQdOnsr3YUmLVOzqJZK2kuT/S0EAAQR6K0AA1dtbT8cRQACBiQjsJ+kDhSv9VdIz0su5025TYgLfkLRJoarXLW0k6aIZ6r1J0uclldamzX6oR6KcUMLX/VGsmdRCAAEEuidAANW9e0qPEEAAgSYJHJoSEGxbaNCtkp6T9jbyiAklJnBMzpA3qPbtabToFZLOm0ulN0tygOtU81XKH/JIlLP8URBAAIHeCRBA9e6W02EEEEBgogJfkPSOwhVvTIkmVs7JDibauBZfLOLqAOqVOQnE3Lq6pqQTA2nm5zz+L3k91dEtNqTpCCCAwFACBFBDsXEQAggggEBQ4EhJWxbqeureSgRQQdEHqkVHoEoBlM/lIMqB0JMD2RJnb6Q3Pd5G0smSvBEyBQEEEOiFAAFUL24znUQAAQSmJnB4YH8np9l+HlP4Kt2jUddAzXkx7xf1FUnLVGrFA2ui9kkJKT4tyclAKAgggEDnBQigOn+L6SACCCAwVYH981SvQY3wSMYzSSJR6T5FsvA5MHUWvl8Gz7y8pFMkLRvYY2r2U94naaeclOL+4LWohgACCLRWgACqtbeOhiOAAAKtENg9vYzvVWjpP3Ma8+ta0aNmNNLTHkvJH7wP1DoV925aLgdCa1Ts5j2SDpG0d8q6eG/FY6mOAAIItEqAAKpVt4vGIoAAAq0T8BqZIwKt9hSynwXqUUWaLwcppe/w30vyBsVVsxsuLulcSQ6mHlIB3FP4Ppmm8jloZjpfBTiqIoBAuwRKf3zb1RtaiwACCCDQNIGXSzotkJxg87T+5vimNb6h7fEUu98G2nalJAemw4wILZky8x0W2Gtqzmb8S9JRkj6UNux1pj4KAggg0DkBAqjO3VI6hAACCDRKYDVJP5T08EKrPhVYK9Wojk2xMS+VdFbg+j9IG96+JFBvblU80vX9dC3fwyrFG+5+SZKDYgoCCCDQOQECqM7dUjqEAAIINErAySH8Ir9YoVXnS3pho1re3MbsIOngQPO8ifF2gXqDqiwg6aC8l9dDK5zLac2dkGJHSddXOI6qCCCAQOMFCKAaf4toIAIIINBqgRVyALVEoRee+rWQpH+0urfjb7yDmM/m/ZdKV9tC0rGlSoHPPXroa5b285rzVB6JOkfSa1IgdVfgOlRBAAEEWiFAANWK20QjEUAAgdYKOImBX6JLU/jcwVUlXdjank6m4Q4yv5WmRa5VuJyDF6clv6rGZnma5XuC93L2y3oa4NaSnNSCggACCLRegACq9beQDiCAAAKNFnhXHr2IfN94L6EDG92b6TfOqcsvSynDFy00xXtAua4DqbrKvHlKoDPtRe7n7Ne9RNKr0lRAp1anIIAAAq0WqPoHsNWdpfEIIIAAAhMXcEa2twWvepKkN6cMbt4XijKzwOtTevGvBnC8/ujVgXrDVHm/pD0kPaLiwc4K+AZJl1c8juoIIIBAowQIoBp1O2gMAggg0DmBX+WpZJGO/UbSupK8SSxlZoGfSHpRAcejTtunxB1OIjGOMk9e13S0JI9KVSm/y0HUxVUOoi4CCCDQJAECqCbdDdqCAAIIdEtg4TTl63ZJ0ext90vaMAUI3+0WQ229eZokB5ml7+6/StooBaMOtsZZPML1uUCGxTnbcJOk10k6L41kOVsfBQEEEGiVQOmPcKs6Q2MRQAABBBolEN2vaPZGnyxps0b1ojmN2V3SXoHmeNTP9uMeyXNg7EDtmJRW/VGBds1exUHU24P7WVU8NdURQACB8QoQQI3Xl7MjgAACfRbwy75f+qsUj0g49Xmd2eOqXL+pdZ004vScqbDURm9i+5ZSpRo/X1nSNyQ9vuI5/5ZG1Lymy5sCe/SRggACCLRCgACqFbeJRiKAAAKtFDhb0npDtPwISdsyvetBci/LQcr8Ac8NUqD1nUC9uqr4XcJp1T0S9cSKJ70zr9c6vuJxVEcAAQSmJkAANTV6LowAAgh0WuCRaT3TRSlj3HJD9PIaSWunKV7XD3FsFw95SF7PtFqgc9emzXOXDtQbR5UnS3LQvGzFk3v0afM08nhiGrH8d8VjqY4AAghMXIAAauLkXBABBBDohYBfon+Y9yKq2mG/RDtV9kFVD+xo/TdK8rS80ne2s++9W5JH8KZVni3pOEkrVmyAU9fvkxKO7F3xOKojgAACExco/TGeeIO4IAIIIIBAJwScatvTyKruFTSr884k9wRJd3dCY/hOeO3TGZJWCZzCSSNeLMmjUNMsC6YRxHMlPb9iIxwA7pn/U/FQqiOAAAKTEyCAmpw1V0IAAQT6JOANUz1q4ulnw5Yv50xtfd5Yd7sUhB4g6eEBxK+k4GkLSf8K1B13lafkFOfrBEbO5mzLIZJ2ZkPlcd8izo8AAsMKEEANK8dxCCCAAAKDBD4u6YMjEt2V94X66YjnaevhT0op3a+U5BGdSPHoU5OsvMnu1yS9smIQ5SmcXg/lTIKsiYrceeoggMBEBQigJsrNxRBAAIHeCJwpyZnjRi3fzy/gTnndp+JNiL8uySM4keKAw5vTNq08VtJnJHnT3aqjkV5LtWPejLlp/aI9CCDQYwECqB7ffLqOAAIIjFHgVkmL13B+7wvlqYBv61la8+0lfSolVnhYwNDWztDn7IVNLPPlaYjvqhhEefTJI2ovT1P6+hZAN/E+0iYEEMgCBFA8CggggAACdQssI+nqGk96r6R3SurLXkHrpix2p1RIwPHpvGaoyZvROq39fnlNW2Q91+yPj5OR+P5fV+MzxakQQACBoQUIoIam40AEEEAAgbkIbCnpyBp1nJ3tNkmrS/ptjedt4qmeK+n0CunfHVyu0JLgwoHTTpI+Isnro6LFo5CXS9pI0o3Rg6iHAAIIjEuAAGpcspwXAQQQ6K+AR4reXOi+g6KfSfK+QZ7iFSl+eV5f0q8ilVtYZ8mcPMGBYqT8Q9I2aePcYyOVG1LHQdTueW3TAhXbdElOLNHV+1+Rg+oIIDAtAQKoaclzXQQQQKCbAn5BvkzScoXuOdX21pJeKGmrIIWDLq+J2bCD+0MtLclp21etkLHOSSa8yW7b0rzPI+mtkg5M67wWCt57V/NI1BU5iPIzRkEAAQSmIkAANRV2LooAAgh0VsD7/5wvaYlCDz31bM2UYe9SSR5ZeFaFwOHXkjZoybS1yI1eLI88rVXBwEkVPFL1i8gFGljH7x9OKuF0914fVaV4OuerJJ1X5SDqIoAAAnUJEEDVJcl5EEAAAQQs8BJJpwZGFv6app551OWOvLbFm8BWGY3wy7M3jf1dy9m95ukISStXCJ7uk/QOSTZrc/E7yCYp2D5M0mMqdMQjkb9P6+K2TSOYZ1c4jqoIIIBALQIEULUwchIEEEAAgSzgF3sHBKX02xfk1Nuz4PaStGvguNmh78zBl0e8PL2rTcV7Ij1D0mmSvGFutDi1t9Ob7xI9oAX1PJp0jCTvfVWleA2Y19qdXOUg6iKAAAKjChBAjSrI8QgggAACswt8QtIHAqMp+0r68GwHOuD6Yn4hrrLh6k2SPplHMbyuqg1l/pyWezdJi1Zs8DnZ6JaKxzW9uqdzHi5p+YoNtcP7815hHpmiIIAAAmMXIIAaOzEXQAABBHol4Ol7rwz0eG1JP5yj3mPTup7vDfES7dOckJNS3BW49jSrOHg6MY+cVW2HR9ycqc8jL10sns7ozIwPHaJzXk/lkU8KAgggMHYBAqixE3MBBBBAoFcCXpP01EKPnUDCIy9eyzNnWTav7VmpoppHH65M5z0kH+8kC00qC0raXNJ7U/ueNmTDvlAhY+GQl5j6YZ7W6JHIFwRGMWdvrNfUfVTSZyW1ZSRy6tg0AAEEhhMggBrOjaMQQAABBP5b4BEpQPAoSWkEwZuiev+nuZWn5+QATxgC+f6cBdD7IzlbXxPKc9I6p6PTWp1nVlzjNXvb3S8nzXCq864XZ3L8iSSPSFYpNtovB1L+7xQEEEBgLAIEUGNh5aQIIIBALwVeLun0QM9PSpvhvrZQzym9jwyMZs3tNB7dctDytTRd7udpXZZHvSZZvEnsi/J+R69OL/aeujdK+VNO3d7WtOVV++7g2RsyO1V7lTVxf5d0QNqc2WvxJn3Pq/aR+ggg0FIBAqiW3jiajQACCDRQ4DOStgu0a89Ux9OtSsUjUd9Koy6e1jdM8bQ+v0T/Nmeuc7a2ca8fcjIMbxD8PkmPy4FTHd+13ivLmw6Pu/3DOI/rGK/38tq2NSpewJkKj5P0HoKoinJURwCBkEAdf9RDF6ISAggggECnBfx9clmepjaoo//Mexh9KaixoiSv/XlexZGImU5/Y055/f28j9ANku4OtmNu1Zx622nIl5G0cTLwaFPVdNyRJkSDzsi52lTHm+z6WXmZpHkqNNxT+D6XMz16WikFAQQQqE2AAKo2Sk6EAAII9FrAowVXSfIL76Dixf4b5TUuUbAl8rSst0QPKNRzEOcNfG+X9Js0Ne5CSR7h8ZqpmwfsKeW1XU/MWQKd5GK1vBmwE2IsElj7NWzzPZLmxBzXDHuClh9nW49ues+nKsV7g52RA/bbqhxIXQQQQGCQAAEUzwcCCCCAQB0CL86JH0prfbyWZ2VJHg2qUuZLIxDeO8qJFB5d5cCKdT1F7s95ZMrT/zwl7+E5QPJ1q4yCVLz0XKt73ZNTfPe5+D58Pk3HfKOkeStAOPg8RdK2ae8tP3sUBBBAYGQBAqiRCTkBAggggEAObJz0wS+6g4oz8DkY8DqVqsXJBJyowlOzqmZoq3qtJtXfJ3nt3qQGTaktHt30VEangq9SHEQ5q5/TyF9b5UDqIoAAAjMJEEDxXCCAAAII1CHg0aFdA3v3HC7p3SNe0KNRDqI2SckhFhrxXE0//J68MbE3GKY8ILCHpF0kOdNhlXJ+zv5YdfSzyjWoiwACPRAggOrBTaaLCCCAwAQETkwb2W4WuM7rc2a1QNWBVfzyvGbaNHW3vBapSqrrUa89yeOdQXB9Rk4eRO5plB6Fcqryqvf9ijwSdekkbyLXQgCBbgkQQHXrftIbBBBAYFoCXqfjjHmDihf1O7X3LTU20uthtpL0QUmPCUwhrPHSQ53qX2kE7tb08u9RNCefKJXTJL1qQGKL0vFd/vwNko4IJC6Z0+D3aUrfugSlXX406BsC4xUggBqvL2dHAAEE+iDg7HTOaleaTnedpCePCWRpSZtKepOkZw8xMjGmZj3otB71OFbSRSmb31Fpk1/vc1Uq78h1S/X6+LlHnxxEfbFiYglbeRqf9+s6s49w9BkBBEYTIIAazY+jEUAAAQQe2KPp4gCEU0o7hfk4i5NYOFObp3c1JdGE04/vJOnU3PFVc1IDB56DikfsFsvB6TjN2n5ue54jacGKHflL3pzY6fcpCCCAQFiAACpMRUUEEEAAgbkIOEPcXgGdj+U1S4GqI1dx6nGvkVpb0lo5dXopQ+DIF80ncOKHn0v6cU7t7hEnp0efVT4tafvAxb6VE0gEqva+iteJeXTP0zirFO9L5hTnX2WaZBU26iLQbwECqH7ff3qPAAII1CHw0/xL/qBzOW35WyV9uY4LVjiHv+e8Tsp7OPn6TmW9XCBbYIVL/G9VjxY5aPpK3nfI65wcNDmF9uzF7fF+RN4cuFTqSrhRuk5XPn+apB8NEUTdnbPzfacrEPQDAQTGK0AANV5fzo4AAgh0XcDTpjwVyiM+g8qdORnCuQ0AeYIemHbotVLLSlo8J3TwPkNex+UED+6Ps7058HMQdF/+j1+23Rev+XIgdHUaJfLaJifRuDnQtxfl6Xulqt7Md7V8/lJdPv+PgH29H9nyFVF8f7eTdPwco4UVT0N1BBDogwABVB/uMn1EAAEExicQXf90fRodeIkkZ0BrUnEiAgdLswImT/Pz2iR/P/qzWSNIDqT8n/vTNERn0vtn/s+cI0ylvu0vaedSJUkX5PTldwXqUuXBAkul4PMsSc+oCPP3vMfUARWPozoCCPRMgACqZzec7iKAAAI1Czjr3ZcC57wsj6jcG6jb1Soe4XJa8jUCHaxjw+HAZTpbxdM0j87PXJVOeiqmN+o9WJLXslEQQACB/xIggOKhQAABBBAYRWDfNBLzocAJvDbIwVafi0dEzs57YZUcNpDEmpyS0uDPnVDCa+7WqXgar13zNEBP6aMggAACBFA8AwgggAACtQl42psznznZQak409lhpUod/9xOfqH31MBBxeurPA3NU8ooowksKekLae+tDYdIHOJNenfNa95GawVHI4BApwQYgerU7aQzCCCAwEQFFs4bkTrZQak8R9IvS5U6/vkJOdtbqZufTwkptilV4vOwgIMo7wvmDIxV3nu8zs33zJsZe90bBQEEEPhfgSp/SCBDAAEEEEBgdgFvVHuJJL+gDirea2eRGVJ690nT2QpvCWz26kQVq6cEEuf3CWcCfXVmxc+lrIZvDowAztmcH+RRVqempyCAAAIEUDwDCCCAAAJDC6yUs8U5a92g8r2Uunvdoa/SjQNfk7LCnRToyjVpVG8VSU5jTqlXwEH8ByW9L6eoj57diSW+nYMv/xhAQQCBngswAtXzB4DuI4AAAiMI7Jj2TfpU4Ph9Ugrw3QP1ulrF37VflfS6QAe/JWmznCI9UJ0qFQUc7DvD3nsqHufq1+bU8n/M69McWFEQQKCHAgRQPbzpdBkBBBCoSeCbaQrfKwrn8kvmppJOremabTzN43L2vci+RM5o+PE2drLhbV5GkjfZXTH/p2pmvlnd835mv877mTk1/0Xp+b487w/WcAKahwACdQkQQNUlyXkQQACB/gncKcmJJAYVbwS7dl4r1T+hB3rsNU3e/6lk5bpfTGul3kXSgloeFW+K7MQRO0laoZYzznySGyQdkrP9OYMiBQEEOi5AANXxG0z3EEAAgTEJPDXt6/S7wLn/kAOo6wJ1u1pllzyqFPnOdRKJM1MAtZskj3BQqgksKsl7aG0s6SWSFqt2+Ei1707P+rn5/nkq5o0jnY2DEUCgsQKRP+aNbTwNQwABBBCYmsAmkr4RuPrFOYDyy2Vfy4/yKFS0//9XkgNOBwFXRA/qeb15UsCyZd63yVkh/b+nUXzvHAQ72cSBkj42jUZwTQQQGK8AAdR4fTk7Aggg0FWBPSXtEeicgyyvgepreWIeqfOmw1WLp0h6JMqbFd9T9eCe1PeIk5NubCXpuQ3cnsUJJw6S9KWcxr4nt4VuItBtAQKobt9feocAAgiMQ8BrS47Pe+OUzt/3pAi7jjgK8Y8cQL2z5/tozfScPS/tQXZEDpz8TDa1eBPeP0naWtJZ3Mem3ibahUBcgAAqbkVNBBBAAIEHBLyfjtd4vDgA4v2fvA9UH4unkV2YX/BH7f8Zkt6b9iK6etQTdeD4JSRtn1KJe21ZkwOnOanvlXR4Wpd1aE6J3oFbQRcQ6KcAAVQ/7zu9RgABBEYReJKkH0p6cuEkXgviYKuv65+Wl/TjlKHN08xGLU4H701235RTZ496vrYev4akz0laVlJpA+cm9tFrpH6bpxz62aAggEALBQigWnjTaDICCCAwZQGvNTlP0nyFdvwy7f/0nCm3dZqXf42kr9Sc0MBp4bdLAcSXc7KCafZvkteeNwUeb5S0f00B6STbPtO17pPkjaiPluT/TkEAgRYJEEC16GbRVAQQQKAhAlvkF79Scw6TtG2pUoc/PzhPNav7u9YZ3hyYeQpbH0b3Hilprzxqs0CNz8s/84a4v5fkDXL/nD29ZslTAx+Rg7Wl8ojXcmk92zDJQObWZE/p82jaB9iIt8a7yqkQmIBA3X/UJ9BkLoEAAgggMGUBb/b69kIbPFXJIwZfm3Jbp3V5f7/+KvX/6QGnYb+LT82jUV3eb8hTQB2IvjkFUQ8Z4WZ6CqQDpFvS2r1z8l5NF1QMQD1l8EWSXpamZq4jyRkWvc/UqOuwvJ7QKdhvG6F/HIoAAhMUGPaP9gSbyKUQQAABBBomcFUaAXlaoU1/l7RqjzeD9TTHnwXW6fil/pspqYBH9aqu6XGQenkOorzXVNeKR34+K+kVI6Qn92iSE3mcmAIfB0xXphEfj/yMWjx91cHxSpJel/c6q3r/ZrXhfkmnpdGwt5CuftTbwvEITEaAAGoyzlwFAQQQ6IqAEyL4pb9UvBHs6pJuKFXs6OdH5lGFUvc8iuRNiT+c1sJ8MK3xWbB0wAyf/yVtvPu2PKrigKELxdPnTkgJMzYcsjPeN+uSvI/WTyaQOvxZkvbLmSnd9mHer36Q90y7Y8g+cxgCCExIYJh/4BNqGpdBAAEEEGiggNOSfzfQrotSoomXSvJ6nb6VhXKmtSULHfe0Mq9/+VRONPGqvGfUU4cAcyKCQ/Jaob8NcXyTDllckqeJbjREIOIA0s+n1999P60T80jopIqn8q0taZs08vrqIdrukajjcuDt0UUKAgg0VIAAqqE3hmYhgAACDRXwC79/aS8VT0lyQOAgoW9ltfzyXspS6E1yvZ7GKeFnFU+N9P9+7JBoZ+YRLZ+7reXAvOdV1XcUP2sOXo5qwHPnDIyfz2n8q96HT+YEIVWPoz4CCExIoOofpwk1i8sggAACCDRQwIv4vyTpDYG27ZunpQWqdq6KN3k9KJD0wEkDHDDdOYeAgyf7ec+nYbK+XZqSI+wkyVPC2lT8fDlA/6gkpy2vUk7O0/W8x1JTygqSPpSSiby2Yip7jz45ScuxE5h62BQr2oFAqwQIoFp1u2gsAgggMFWBR+XF7i8OtMK/wH89UK+LVbx2Z7PAFC7v5eTscjMVBxAOJLwuqmrxC7jXAPkl/KSqB0+xvtc7OSNdlWQM3qx5txywOi1504qn9bl9u1fs103p39rzJf2paR2iPQggMNwiR9wQQAABBPop8BRJZ6VRqNIaHb/AL50SGziRRN+KR4zc79L6Jxs5Jfb5BSAHYp9Ia2NsX7U4iPp0Xlfl/97k8piUtfE7FTdedvKM9+V1Q03umwNCZ9j7WMWpmRen52P9lGXx9iZ3jrYh0EcBRqD6eNfpMwIIIDCcwMp5Dx1vbDqo+Nfzx/d0+tHGOS156fv1mrw5a2mNmKe1eZqfR2aWHeK2OamCU5x7OqD3QGpisZVTuVdJGuHpjw4uftmA9U5RU2dbdJIIZ+mLFAfZe6aRq71b1MdIv6iDQOsFSn/gW99BOoAAAgggUJuA13J4Y9zSd4ensL2+tqu260QeoXP2wVJxmvOtS5Vm+9zrog7NiTmqbijrF3GPdL0nHf+LhgW2fpacgt1Z96Ll1jz1MZINMnrOSdXzv4vPpP2tnGkwUq7Pz5P3XqMggEBDBEpfgg1pJs1AAAEEEGiAgLOjecpUqTgTmjOQ9a141O0PkrzuZVDxWh1vnPvVikBOj/7OnKq8lOFvplN7KtiOko5vUBC1SB4he2bQ4m5JHuXzqFpbU317WubRwT2/3EdnZVynxf0N3lqqIdAeAQKo9twrWooAAghMW8AbknrdzqDivWyeK+mKaTd2Ctd3dsKvBK7rKY5OX355oO6cVTz65ODL62m8bqhq8b5ITmjgEbC7qh48hvq7pIx7Hw+MavrS3t9q2xaseSoxeU3U/pKcrTGaMOONQwTcpXbwOQIIDClAADUkHIchgAACPRNwcgSPYJTWb9woaaUGr7cZ123z96k3svULfql4k+E1U4Y9b347TPG1npdH+RysVv0ud+Y6B3p+gZ8zhfow7Rn2mOVTIHmBpNKaulnn99Q3ZyWc5Oa4w/atdNwCeb+q15Uq5s9/nEfe+rgxdZCIaghMTqDqH93JtYwrIYAAAgg0SWDVQMY4t9cvek4G0ITRjUn6eUqdp1qtErio9wbyqMuoxVMGnZTAaeXnGeJkv8p7enkkbNLT4Tzy4nVPbw20e9YaLgedHuHsSnFmxXNyxspSn2badLl0DJ8jgMCYBAigxgTLaRFAAIGOCXjtzKcCffL6mnekvW+c/a1PxUkevIlraYTOoz/Opue1UnWUBfOUvPcOsfmsr39tmhq38xT27HpSDrafEED4Y5ruuKmkCwN121TF72Be03ZYsNEO0NcO1qUaAgiMUYAAaoy4nBoBBBDokMApOQNcqUt75LTLpXpd+3wHSQcHOuXpe5FRqsCpHlTFacq959Ojh5jS5xM5VbZHxSY1Pc5Bm9cBlYpHn/aT5FG7SY+SldpW1+ffzmviIu9kDqAcSFEQQGCKApF/rFNsHpdGAAEEEGiAgEc5/Ov/MwJtcarzkwL1ulTF32vPE4EAACAASURBVKWeBlfycQDwkTEGmJ7K59GMZw2B6yliTlHvpA7j3i/Ka56uzHuFlZr6u7R582od30z2+ZIcRC1RwpB0YhrpdEIJj2RSEEBgSgIEUFOC57IIIIBAiwSWzmmjveamVPzy3rcMfA6cIn2+JycC+EEJcYTP55f0HUlrDHkOT0PcQJI3+h1XeXtw3ydvMuype6eOqyENOa/Xrx2TA6NSk3xf1krTZG8oVeRzBBAYnwAB1PhsOTMCCCDQFQEnkPAGsaVsafemTHSLjpBdrq1eO6W1TwcEGv+bvCnquF9+HyXp/Xltk7MnVikeJft9njLnaZt1J21w9rlvSlo30KjzJL2i46NPsxg8eui9rUrvZd5D7FVpGuiZAT+qIIDAmARK/1DHdFlOiwACCCDQIoFNJJ2cNnD1HkSDSh8XuXv0wFPfXh24nw4cbDmJtTzOcucXbWe6WzjQtjmreC3URyV9cohjBx3iDXM9XS2SPMLrpCKJS2pu4lRO5/cxB1AOpErlcEnvLlXicwQQGJ8AAdT4bDkzAggg0BWBvXKmt1J/dpX0iVKljn3uEbfzc2a9UtfeIulLpUo1fu7veCcd8OjYcwKjG3Ne2qNPnlq2j6TramqXk134nA8rnM/7U3mfqD/VdN02nOalaQ+10wMp6W9Ohk9Oo4QejaIggMAUBAigpoDOJRFAAIGWCZyW93YqNXvlVO/npUod+9wb2TqzXikg8Mvu4lPaH+txko5M7dxwCHuPlvmeeipdHcHMUSkYe1ugHc4o6NTsfSqL5Qx7kWQkHqnyFEcKAghMQYAAagroXBIBBBBokYC/J7xmZ6lCm++Q5L197m5R3+poqlNxe6pZqZwRDEJL5xn2c6+LcjpwZ3Ar7VU10zWcmc+b3nrj12EzwHkKqNdXefRkULkvZxK8etjOtvQ4Twf9fNqba4tA+z+W9lrbLVCPKgggMAYBAqgxoHJKBBBAoEMCT5HkVNKl9U8ehXF2sEntI9QEYo863ZRHlga1x6M4fik+bsqN9rqozSV5Dc28Q7TF0+o8HdAv78Os4/KUPKcvL717XJzXAjmQ6lvZMo8Wlvr905xp0ZkKKQggMGGB0h+xCTeHyyGAAAIINEzAL/5HB9r05Rwk1J21LXDpqVXx+qLvB65+q6T1UqKJywJ1J1HF07+cXOKpgcB4pvY4APN+VrdVbOy78j5VpcM8zW8rSX0MDlZMyT9+UQKS5NG51WuaVhm4HFUQQGB2AQIongcEEEAAgUECDp4iU4r2TCdx1rY+FWeI2zHQYSeZ2EjSXwJ1J1XF62wOzaOGVa/5rxQQegRkW0m/qnDw8enF/82B+tundPiHBOp1sYrTzv85ZR9cqNA5r0fzfl2RYKuLTvQJgakKEEBNlZ+LI4AAAo0W8BQ1T7l6WqCVfjH2KFRfitcUOWPaiwIddjDgoKBpxdMyD86jPfMN0ThPX/R9PzcwWuT1PZ7m6WyApbJmTuldqtfVz53u3kk7BhWvNXyNpLO7ikC/EGiyAAFUk+8ObUMAAQSmK+DF/hekNTOPCTTDm+1eGKjXlSrez8gvr48NdGj9Br/oemNbJ4f4+JD7RTm5hEfiPiPpHwMslpT04zxtsETm583THvtavAlyaf8tjwI6Lf4JfUWi3whMU4AAapr6XBsBBBBotoDX+Jwq6ZGFZnqtilN0N2mK2rhl/fJ6bCAhwu2SHDw0fW3YKpK+mvq09BBwzsrnUbY9BmRhXCEHkaVsjp6aFglKh2hmaw6Jrq3bLk/DbE3HaCgCXREggOrKnaQfCCCAQP0C3q/nc4GNPa+S9PT6L9/oM56S1p+8KtBCj8zsEKjXhCqeXrdvGnV82RDJJZyVzynOPXryyxk6s5qkb6UXfu91NKicla/fBI9ptcEBpKdHlooD1r1LlfgcAQTqFyCAqt+UMyKAAAJdEXC66l0DnWnqGp9A04eqMn/a5NUpvb3gf1DxyNxKki4d6irTOch9c5Y9T+sbpngEydnh5tzDaR1J3wiMZvZxA905nf1u5hHL0tYBB6YRv52GuUkcgwACowkQQI3mx9EIIIBAlwU8fe+VgQ42eY1PoPmVq7wpreX5UuAo75/lkRdP42tTcWDolOMfzNMPq7b9rjydz8HQrOIshF6v4zVXg8oHJHlz4r4XJ4kobXh8WM6E2Hcr+o/AxAUIoCZOzgURQACB1gj8Jq2LWa7QWi9m94veP1vTq9EberKkTQOncTa1zSTZqG3F7wfOhnempKoZ+jydzyMoTlv+ztz/TVI2x68EzuX9n77QNqwxtPeOlCHRmR4Hlc9L2mYM1+aUCCBQECCA4hFBAAEEEJhJYOGcCa00Te0KSc/qEeHjczKE5QN99nqgAwL1mlzFKey9jssbAZemlM3UDwdgnmbmfaec5r70PDk5R2R0r8lmdbTtr4HpjkfkkcI6rsc5EECgggABVAUsqiKAAAI9EthQ0hmB/p6UNlN9baBeV6p4VOa0wEan7q+TMsyUUKFtFh4J8XobJxWpWrwOzCnJ/ZxsndKlz1s4ga9xTNWLdLD+3wOjdW1KUNLBW0SX+ixAANXnu0/fEUAAgbkL+IX5fQUgT9XaJ6936Yul1wV5z6RS8fonZyZ0ANGV8iFJXqPk0cmqxQ5+5yi9d7xX0uxrp6pepwv1ncjjnoCVk7zs1oUO0wcE2iZQ+kPWtv7QXgQQQACBegQul+TNYgcVr3vaMq91qeeqzT+LNxb2nkmlsmMKNA4qVWrZ5w9Lo5IrSzoxrVPyVMZxlE8EMz+O49pNOaenxF4WaMzOeRPjQFWqIIBAnQIEUHVqci4EEECgGwJLSPIISmkDXa/T2FjSj7vR7WIvHDRcm/beeWihpqdfLZMW+N9cPGM7K6yYsvN5/Y0DybrfI5zqPJKgo51ysVa/Ma8XG1TbI3rvYLpjDJRaCNQtUPcfvrrbx/kQQAABBCYv8CJJ35XkqUSDivf88YjEjZNv4lSuGJ2+d1HOYHffVFo5mYsunkeKtkvTOD0yVVe5JgefdZ2vjef5bFo39u5Cw++V9Pq8Hq+NfaTNCLRagACq1bePxiOAAAJjEfAmqk4lXXoxvjJtjvrsOdb5OFPbgjm1uf+vU2AvJskv3IvkfYB8Xv+C7nUe3jPoJkl/Setr/FLo0Zu/5f80af3QPJJ+JGnVgLhHZ/wC7DViXS7OqLeHpPcMuS5qJhubeY2V90Hqa/G/qxUKnffeYq+QdF5fkeg3AtMUIICapj7XRgABBJopsHdenF76jjgyZ1ZzPY9EeUqXM889UZKnAfo/fhl2EFU6l9dT+aXQgZRHtm7IGezOTy+KlzRgLyW/0J4taanALetTKm4HzH6Rd+IH3/c6ip+ln9dxohaew/9mPPWzlDL++hTQv0TS71vYR5qMQOsFSl9ore8gHUAAAQQQqCxwQjA1+X45QPKajdJ6qcqNmO0Aj1I5cYFHxbw2684pZLd7naTjAvsY/VvS0jkAHKXPbTvWGy6fkjbL9b5RpTVipb55bc9RpUod/Ty6fYCTvHg01KO2FAQQmLAAAdSEwbkcAggg0AKBiyU9L9BOT7Er/VIeOE24ioMTT29y0opvSvrhBEemIutS3JFzU7vWCveoWxUfI2nfnNxglJ4dmkYit+/BFMg5jfxO9tHgtgDebNgjnRQEEJiCAAHUFNC5JAIIINBwAWfXG+eIUl3d/21Ooz6JLIC+1rKBhjuDnDPJ9bl8JAcBwwbXvp/rpSQV/+gZotcMesPhDQL9ZsPhABJVEBiXAAHUuGQ5LwIIINBOAa9hurRFTf9XeuG8ME/vc+AyjuQDXtvltVil78xb8jogr+fqc3Hg5EDSI0le01O1eMrm8jm5SNVj21z/KflZdtKVQcWB5RMk3dbmztJ2BNosUPoyaHPfaDsCCCCAQHWBaKru6mce7xEOpH4lyRkEf1nzpbwex7/4lwp7GP1HyO8XntLnxBveGLZKcSa+3SR9vMpBHai7a54CWXo36/M00Q7cZrrQBYHSP9Iu9JE+IIAAAgjEBX6aXnpfGK/euJpeVO9kE4dIurqG1jmLoBNXOA37oOL1YDvmbHQ1XLYzp/BIibM6OtGIU8FHy62Sni7pjugBLa/36LSv028Cz5mDy3dJ+lzL+0vzEWi1AAFUq28fjUcAAQRqE/D3gTPNHR/Y/6m2i47pRA5mvLnvNilT2XdGvMbqeRTFqdgHFW+a63U7Pxnxel08fN6UOfG9qWNOkFBynL3/W6apal/sIsgMffK+YU5UUipO8+/05XWPspauy+cIIDCbAAEUjwMCCCCAgKdavS/tw7Rd3ui2KyIejdonj0gNu15kh5RQ48BAtkGPmDiFtxNwUP5bwKnNPQ3SCSa8l1bk/eOcvJbKa6K6XLzBtLNKOlgvlYtyoN51k5IDnyMwVYHIH7CpNpCLI4AAAgiMVcCZ5Y6RtFrwpbZKYzzdyBt+XiXp2rxRrgMMpyP3C/Uj8pQlT/Ny8PHkMYx+eTTK6c692es9VRqf63pd0yaB47xOyvsXUQYLPF/S0cF1UR7Vs/2oo4hNvydvSHuHHRuc4uh1Up9oeodoHwJdFyCA6vodpn8IIIDAzAIOYBw0fS2PCIzq5NGeP6YkDn+QdF76ldxrqX5WcUTGqdNXlPRiSWvmgOrxkpzeedTiAO61uU3Rcz08b4hbyiTnIM2WHh2glAWeKsl7jUVS5Xuqmp+Hv5VP28oaHv31vxP/iFAq3kDaP3j8uVSRzxFAYLwCBFDj9eXsCCCAQFMFXi/p4Jwpbdg2eoTJQdNX0sa738qjTE7lff+wJ5ztOAd4DlyelAKTDSVtnv/7KKf2aJiTGTi4i5TXSDoxMDLnEbYV0t5HDqQoMYFPphHB98eq/u/aqb06uLGuA3Sv8Xpz0GGPnJAjWJ1qCCAwLgECqHHJcl4EEECgmQLOhOYpQ85UVyUr2uy9+XvOTOdMYMdNaHRggfyi6cQQDlaqJCOYve3eo+nVks4sBDz+fvTUvzUKt9FB5GFpVOA9zbzdjW2Vp2x6pHLRQAuvS3uTvbKDiROcDOKU4EjczTk7pkdSKQggMGUBAqgp3wAujwACCExY4E35hT8yfWrOpnntkkdvnCL8B3lN04SbL6d7XkvS9nlql0eqqpYb0iatWxfW1jjRgV9WH1Y4ufefekva+PWEqo3oeX1n5vP00VcFHByknpXrehPZLhRPTfXarmcEO+N1Y/7xwM8bBQEEpixAADXlG8DlEUAAgQkJPETSRpJOHmLkyVPTnGXOU6n8IudRnGkXB05b5ClNXkfi/lUpfhF3IHbhXKaGbZqtSud0WmlnT/MmvpRqAl435lE+T2WLlE/naX9tDyL848Xpwax7dvH6Qm9GfE0EiToIIDB+AQKo8RtzBQQQQKAJAmunX7tPCk6Zmr29HnVyhjmvWaljY9q6LbzZqlOwO0V21SmJDnq899UVczTKwZgznUXW6Fwm6QWSujIyUvf9KZ3vMzl9fqmeP3cGR+8n5ayRbS77pw2CnR4/8rz639/Oeb1im/tM2xHolAABVKduJ51BAAEEZhTw+qFfp0DoiRV9nPXLSRe8XqjpxVMTj8ip0au01VnenFrbL6qzitdXnR0cIfCo3J5VLkjdBwksnrMXOoV9pHj0yT8GRBOBRM45yTrel2y3Chd0P19eMZtlhdNTFQEEhhEggBpGjWMQQACB9gh4rYWn7a1Soclec/JjSTulaX8/r3DcNKv6++xFkvYbYk8r+3gPp1mbkzrQvDIQjHkq43J5rdQ0+97ma/u+eQTxUxU6cXvOyvjtCsc0oaqD7Q9K8vqvSHFQv3FLfsCI9Ic6CHRGgACqM7eSjiCAAAIzCjjhw7aBVNyzH/z1PCXu7haaOvW5N791MBUtHtVwAHV8PmDHFDwdEDA7P2dGi16HejMLOFGH10JF75kDfAe73hz5Ry1A9Xo9r99yEohSUpLZu3Ngnr7n/lIQQKBBAgRQDboZNAUBBBCoWcBTf7yPkafwRYoDCe/p5ADCyRHaWpxU4qC8cW40S5+TZLxM0uV59MlptgcVv9R+KK+VaqtTk9r9uDxtMpqVzm13Ov0P53vd1CDDUxT9LHrfteiz6L552qwTmbiPFAQQaJgAAVTDbgjNQQABBGoSWDZPv4umK3emvcNz8NSELHujMrjfX8pToKLn+kVe3O/RkNL346wRkHOjJ6deUSCa+XDWiRw0OXmHN3HearYpmMULTaiC19Y5cYs3g66SJdIbUftYJyihIIBAAwVKXxANbDJNQgABBBAoCPiXbgdDfqmMFL+Inippy5aPPM3Z18fm9V9Olx35vvMI3MVpf55VA2hOyvHSZHZjoC5VYgIOMrw5s5/DqsXJFnbJCSmmneZ8sZzdcff079CjoVWKR369r1jb1ndV6SN1EWi9QOQLpfWdpAMIIIBAzwSem5NALBjst1/WPMWojWueSl30migHhw6iIsUjcZHRAk+NfIMk16fUJ+A05Z7yNkxxmnPf6w/kfcuGOceoxzio3leS/w1WmbLn696XN4g+ctRGcDwCCIxXgABqvL6cHQEEEJi0wCNy8PSc4IV/J2mTvO4neEjrqq0p6QxJ0YAy0kGnd/9qpCJ1wgJ+J7kkBUHRZ3duJ74tBzGn5QyJ4w5yF8ob3W6XR56GebfyWidnIvwIQXn4eaEiAlMTGOYf+dQay4URQAABBIoCVX7B9y/e60n6SfGs7a7g77rX5jVRVbKgza3X96SpZp4e2MURu2neaa8VuiY4Alhqp1OAe3qls/R5OqszJtZd/GPF5mmD6TentU5OfuFAapj3KgdPDpycdW/2/cjqbi/nQwCBmgSG+Yde06U5DQIIIIBAzQLO+HV6Wj/xgsB5vU5kr5RW2Rt79qUclUYkthjyJXd2I08T86gdpV4BmzoF/TiKsyt+UdI5kryPlKf7Vclw58DbAdMikp6SR5o8CjnqqObfcuC0d8oo6OQRFAQQaIEAAVQLbhJNRAABBIICXsd0rKSHB+pflPfRuSVQtytVPEpwXnphjWYmnKnfng7mIGzWnlFdsZl2P/w+4oDeacnHWTx6+Pu0z9l1ae+vG9Lo0dWSbpL055zFzz8seA3c/DlYchIIb6y8jCRvSu3gaamaRsmcMMKbCDtb5LinGY7TlHMj0DsBAqje3XI6jAACHRXwL+T+lf3pgf45Tfn6efPSQPVOVfELqzfJjSSKmKnjN+fse1d0SmX6nZk3JV74Zn4up9+a8bbAwdKfJHkEizT447Xm7AiMRYAAaiysnBQBBBCYuEB0+pNTlh+as31NvJENuKADzR+kqVwvHrItXi+2saQ7hzyew2YWWDgFFL+V5KyJXS9ObvH+lMXxqq53lP4h0FUBAqiu3ln6hQACfRKYJ+939IpApz1tycHD9YG6Xa3yaklfljTfEB10prSdhziOQwYLOCj1hril4qDD0+1WSev36kgIUrpenZ978+WPjpCmvc62cC4EEBhBgABqBDwORQABBBoisFza5+gsSc5iViqfl7RtzxesLyrp7PTC/rwS1gyfr93TqY9DUFU65OQ0BXXTwBH754x126RRQGecjDzzgdOOtco/0ubM35H0yZwN0KPAFAQQaLEAAVSLbx5NRwABBLKAN3T1iErkb/ozO77nU/Sh2EqSg8kqxdnbnFSAVNNV1Mp1ncnOCRVKyU+c4MGjh8406Wfd0/68nu0d5UtMrYYz/TnNudvstYcUBBDogEDky7YD3aQLCCCAQKcFzpT0skAPHWT5ZY7ywPS931QcwTikx2vHxvnMbJBS7387cAFnznPdX89W1+8xq+fMiF4H+KjAecZdxQH2z9PeUCeljH1H5ux+474m50cAgQkKEEBNEJtLIYAAAmMQeLQkZ4Yr/XrvX79XTr/gXzaGNrT1lPumUYEPBRvvl2JP3/txsD7V4gKfSHsy7RKofkHyX0fSvTPU9fO/ZNrceKe0ge6WabrcAoHzjavK13MbvNcU0/XGpcx5EZiiAAHUFPG5NAIIIFCDwJvyPjKlU10i6SV5A9FS3b58vlZOXLBQoMPOELdu3jsoUJ0qQQGPBJ4SHEGNJvBwIPUWSetJWl7SYyU9NNieUas5RbnXZnm0koIAAh0VIIDq6I2lWwgg0BuBr6apaN5At1SOkPRufhF/EJNfrJ1MwuvCSuUbed8eJwSg1CewuCRv6vzkwCnXqDgC6ODMa9acZGUjSS/PG+EGLjV0FY86ORnG94Y+AwcigEDjBQigGn+LaCACCCAwV4FFUkryc4LZ5F4jyVOLKP8R8Hfg1yS9NoDyGUk7BOpRpZrA89O6pgsDI0ROXe6A9/5qp/+v2kvlFOgrpsQry6Y1Sv7f8+cpsE6L7g2WPe3OUzadtOK+vIbJwZhHLEvl2jzV0/+XggACHRUggOrojaVbCCDQCwGPnHjx/RMKvfVLp3+Jd6YzyoMF3ppGP44JoDjQ2jy/VAeqUyUo4NTe3lS2VI6T5HtVd/HUPgdHXkPlAGrWe9HsAZTXD+6dgrcPBy7+ozxVlkyNASyqINBWAQKott452o0AAgg8kNTAm48+ooDhxAee/kT5bwHvI3RNHnkY5GPDV6ZRqDtArE3AwcvvJC1dOKPXFXmtn4PYaRQHVidKcpa/UtkjB1ulenyOAAItFiCAavHNo+kIINB7Af8if3Rg/yf/wu/9cij/LeDvwT8E0plflZNI3AhibQKeRndp4Pm9JSeEuLy2K1c7kTP6XZwCuKcHDlsp1w1UpQoCCLRVgACqrXeOdiOAAALSxyTtWoDweo7npl/PfwnYXAU8svG6go+nP66WEkk4Gx+lHgGnLncK81Jx+nIngfBGxtMoXiflNU0eiRpUbs1TZafRRq6JAAITFCCAmiA2l0IAAQRqFoi8+N+ZR1fuqvnaXTqd17Z4jcug4nVkL8gjJl3q+7T6Mk9OarJxoAFflLS1JE/lm0Z5l6TDAhf2xrmRhCSBU1EFAQSaLEAA1eS7Q9sQQACBwQLn5VGRQbWuzC/+M20+iu8DAk47fXIAw6MgZwTqUaUs4KQmP8j7NJVqO03/CaVKY/zc699eXDi/R3q3TSNQh4+xHZwaAQQaIkAA1ZAbQTMQQACBIQS8AP+pheN+mDcpZf+iuUOtIun8wFqcrSR9YYj7xCH/LfDstK7pp4EEKM6A5yyTnh43jbJYGv26SZJHzAYVj/B6NM1Z+CgIINBxAQKojt9guocAAp0WcEa4RxV6eEpe3+M9bSgzCzgd/M8lzVsA+oCk/UGsRcCbOh8aCFodkKxZyxWHO4k33z09cKh/zFg/JyQJVKcKAgi0WYAAqs13j7YjgEDfBfzrfOmX8eMlvb2GDUi7bO3sahdJWqjQyX3SBqu7dxlign3zyGgkMNouB1oTbNqDLhVJ1OIDvp+eoQ1TUhdGeqd1p7guAhMUIICaIDaXQgABBGoU8GjJ3wO/4B8pyYvg2dhz7vjLSbpQ0sKF++OMcaWshzXe4s6eavE8La6U1e5vkl6Y1qhNK335/HntVSTRBcF1Zx9XOobAfwsQQPFUIIAAAu0UmC8HUKXWfy4vbieAGj2A2k/SB0vgfF4UeIuk44q1pF/k9XveB2oa5XGSvps20V0hcPG1JJ0bqEcVBBDogAABVAduIl1AAIFeCjw8OF2IEajy47F8nsL3iELVPdPnHy2fjhoDBPze4Yx6mwWUvipp8ylOP/VGv96Dyj9WDCreKmAJSawzDNxUqiDQBQECqC7cRfqAAAJ9FfALW2kaFGugyk+Hk0hcLMlB6aDy/pQ17oDy6agxQMDpyz2q86yA0g6SPhOoN64qXn8Vub5T4EcCwnG1k/MigMCEBQigJgzO5RBAAIEaBf4iaZHC+b4hyfvo8Ov43KFeJMl7/ZS+E52M4+ga718fT7Vqzmq3aKDzDrKuCNQbV5WzU6r19QIn9yiZf6igIIBATwRKXxY9YaCbCCCAQCsFrpG0dKHl3qx0g+B0v1Yi1NBoB5ieLlYqL0sbF59VqsTnAwXeIcnTSkvvH9flZ9sb1E6jLCjp9kBqeye6eEHaKuDX02gk10QAgekIlP6ATadVXBUBBBBAICLgjUidpWxQ8S/43ij23sgJe1rH65o+Uuj7/flF+dKeGtXVbQeqDlhLZd+09unDpUpj/HzdPNWwdInfpOQRa0v6U6kinyOAQHcECKC6cy/pCQII9EfA6ZVXS7/QHyvp8YVue5qfR6nu6g9P5Z5+U9IrCkfdll6oPdXPG6ZShhPwej0HGqXpe84Y6cx3vx3uMrUc5QDuQ4EzeUTSz473ZKMggEBPBAigenKj6SYCCHRC4CH5127v6+S9aUpJD9zp/5HkbGLTXEvSZHx/D/5R0mMLjfRIg0clXJcynIBTfXtKaak4SH3OFEdN/QOF1w56ymapfDwYaJXOw+cIINAiAQKoFt0smooAAr0VcODkFNuHphGQN0ny/65S3ifp4CoH9Kju04PrV/ziv4mkv/bIpu6uHpY3dS6d9+t5mp+nTU6jPEnSdyT52SgVJ5k4p1SJzxFAoFsCBFDdup/0BgEEuifgzTw94rSlpCWH7N73U5a5dYY8tuuH2dYv9qXyZUlbTHFPolL7mv75QmkE7ydpZOfZgYZ67ZOn0E2rOFOgM/C5zYPKPXnk8u5pNZTrIoDAdAQIoKbjzlURQACBkoBHmfzC7n2HFh5i1Gn28/uXfK87YR3Ug9X9HXhqYP2Tj9otTZn8WOmm8flcBZ6bkpmcKcn7QJWKp0p+r1RpjJ+/O4/2lt6R3J8Nx9gOTo0AAg0VKP1xaGizaRYCCCDQWQGnT3bacY+MrCnpoTX11NPPHCxQ/iPwxJyWPDJVyyN4HsmjDCfgqadHBdbtOS34UlMO9iNJRazglOzuEwUBBHomQADVsxtOdxFAoNECz5D02Zwu2wvZ6yyepvaelK57Wvvq1NmXus7loMgvyw5aBxVvQvxoSX65pwwnfZBeDgAAIABJREFU4PV7HtkpvXecEExzPlwrykf5B4s7AtP37suZAv9QPiU1EECgawKlP2Rd6y/9QQABBJom4Kl6T5X0tvyC+cgxNfAiSV7wzjS+/wB/KnnsGPB2RrZNA/WoMneByyQ9qwDk4N7P6DSn7704rRf8ceBGeuNc1/U2ARQEEOiZAAFUz2443UUAgUYJzJN+kd9T0uaSnCxinH+T/Yv5C1IgcHmjBKbXGI/wXZ/WuiwWaMJLg5uqBk7VyyrLSLoqMB3Ve205nbz3gZpW2Tu4ge/pOahm/6dp3Smui8AUBcb5ZT3FbnFpBBBAoNECTgrhl/L9JTll8qjFv9xH/p4fk0e6Rr1eF453avcDAx25UdLyTN8LSM29yi6SPhE4gzPfrR+oN64q3lfN6cvXDlyA/Z8CSFRBoKsCkS/crvadfiGAAAKTFvDf3I3SRT+a10/MN2IDHDh5g9zvSnpvIFPfP1ImtFXSfka/HPG6bT/c6eC9d4/XnJXKyXlNzjRHRUptbPLnXlPk6aPPKzTSz7KzHDqF+bTK0jmpyLKBBvjf8RmBelRBAIEOChBAdfCm0iUEEGicgF8iPYqxe572M2pmvf+RdJOkYyXtl6f/nRUczfp8XmvV54DgLSnT25GS5g08KVvnuoGqVJlB4Gl5/6fFCzqeCveGtE+U15tNq6yRAr1v5W0DBrXBSUU85fbP02oo10UAgekKEEBN15+rI4BA9wWcIGJ7SZuNsBHu7Ep/T+c5QtIXJP0qf+CRrK+kkSWnKi+VG9Ii/dXTVL7rShU7+vnD0jSx8yWtFOifrb1+5+ZAXarMLPDqlCTlSynQL2WVdIbDZ075ufTWAc6CWXo38obA/jdEQQCBngqU/kj0lIVuI4AAAiMJ+G+r1zk5OYSn6y0y0tkeONgv835xc7a+P85wPgdPXw+8/PnQT0vyGqC+pTT3ffEUsb0C98M2+0jaI1CXKnMX2FfSroHn8oI0fW61KUOemH/oKDVjW0neFoCCAAI9FSCA6umNp9sIIDA2AU8L8xQxb7Lp9Uaj/p31dD2vcfKokxfZ3zuXlnsU6sI0BerZgZ45I9/GeR1QoHpnqjxH0g8DU7Tc4T9JWo607yPfe28+HEnK4D2iDh/5asOfwNsJOGGIswAOKl5H6OeiryO4wwtzJAIdEhj1i71DFHQFAQQQGEnAU8O8UP6oYHKC0sUcOHnq2M5p/ZQ3F42MFr0qTYNy0oPIGqtf5Ixnt5Ya0pHP/X13vKQ3Bfpja0/l2i5QlypzF3BWuzsD0/e8pmhRSXdPEdM/dngUrFS8n5VHyub2Q0bpeD5HAIEOCBBAdeAm0gUEEJi6gF++PK3HAcxCI7bGL+9/kHRcXuc003S9uV3CexqdllIxrxpog19anVq6L1PUfH+cttwv9aXil+OX5BG9Ul0+n7uAg1WvfyqVn+ZNaUv1xvm505J/MHCBL0vaIk0FvT9QlyoIINBRAQKojt5YuoUAAhMReISkT+a1TgvUMF3PjT46r9Px6FNk1GnOjr4n/Zp/SLD3DqK8784PgvXbWu3FkjyVzBsXR8oX0zqzrYb0j5y/L3U8XXLNQGe9Tmqa6cs9fc+p/Z3EolQ+kPdvK9XjcwQQ6LAAAVSHby5dQwCBsQk8Pi82f2fKfuc0zaMWr0n6Zl6Y/qMRT+agzsHCysHzXCvJmdIuDdZvW7WlcnINjxJGylWSXsDapwjVwDpL5FT7pemkTl/uDJVOHz6t8uS8V1Up1brb5x8cvBaRggACPRYggOrxzafrCCAwlICTL+yfpiY5PXnp5TBygcvz9L+f50x7kWNKdZ6ekkRcnEbHPCpWKh7l+lmeQuURqS4VT6f0KMhzg6OD7v82eRSwSw7T6IsDje8ELnx7fvZ+E6g7rirr5AAu8u/FSSacYISCAAI9FiCA6vHNp+sIIBAW8LqZtdKoxI75F+jwgQMqesqQ93I6JiWK8B44dRYHdp/JG+ZGz+uNeN+eRw2ixzS5ntPIezpkZG+sWf1wmviNUor3vza5Yy1pm6fk7R1o6xVp3d7zJXkkalrFyUKc2r/0TuTEKw7GKQgg0HOB0h+LnvPQfQQQQEDLSjogTYtbI6e/HvXvprOS+cXSG9+O85fsJ0jyy+kjg/fw3zkBRZWAI3jqiVfzSIJ9X572cnJ2xEj5S047f3WkMnUGCnitmTNHRp4lryHcZcqeTgzxxkAb3p//FgSqUgUBBLosMOqLQJdt6BsCCPRb4In5pcqbgEaDkLmJeZqcX9A9wrFbWvNx5YRoPWrmtSVVMgN+LyfFuGlCbaz7Ml574/2EvK4rWry3j0chjoweQL2BAn7eHLz739Cg4lT9Xqt3yRQ9/R7koPkphTY4694yaZT2+im2lUsjgEBDBAigGnIjaAYCCDRGwC9/zmS3ZZoC9qQa1jk5eDo9jYTsk9cleaRnksWpyv3LuTONRcv5kt7Qws1CvcHpscl7pYr37Rs5aLwnCkS9gQIerXVmx9Iz58DF98yB1LTKCpK8DrHU1l9Lcl0KAgggUJzvCxECCCDQFwFnr/NGuAdLek5gPUTJxQkJPNLk6Xp+QZ9WeVSamnZmnp5W5UezO3J2NCdhmHTQV9XKa76cCMBryjx1MVoc3Hpj1NWnvIlrtL1tqff5nAa+1N4jJL2rVGnMn3sftD0D1/B+Vm8J1KMKAgj0QKDKl2kPOOgiAgj0VMC/mO+QEwhENlotMf0+rZc6KKfPHuc6p1I7Zn3uVN6n5pGZ6DGud2sOSrxOpamJFRZNSTh2ziOG3ki4SvEIyOvzyGCV46g7d4F5U/DkzZ99XwYVB+XeaNdrpaZV/A7k9P0rFhrgQHun/G96Wm3luggg0CABAqgG3QyaggACExXwqMXj0ujK7sFfy0uNm7XOyQvSvc6p7sx6peuXPvfo2hmSlixVnOFzr2fZPK9raUqqc7+oe0qVM+2VXoBn6rLvj9dJfXcIDw6Zu4D327ogAPTntCZw3byBbaD6WKp4tPJXKTGER58HFWcI9PYF7P80ltvASRFonwABVPvuGS1GAIHRBR6Tkjpsn5NEeJ3TqH8L75bkwOmovCC+qVPeNsgjSg4cqxZnD/RogRM0OAX7NIvXOHnqlzdgrZIgY1abb8lJI06aZic6em2P5HoabKl4w+JVJfm5mlZZL2eedDA+qDjYfgYJJKZ1m7guAs0TGPWloXk9okUIIIDA3AXmz1O2vOfLMC/es5/ZI07/j73zALekqtL2V53IIBnMg3l0FMwBJIiCYUBRTBhQR4TuxjiGfwyAccyBviQVUcyYB0mCImZFUBEzYkRJklOn+us7d19tus+9tc+pOhXf7XMf2nt2WPtddevUV3vvtRyZ6zfhbIS3ArWheLviF7M8UVuMaawP/PuMy9tCzigzqKI4NLa36L294FkUR9x7QRC8VdjdpzG8/dUrgjEhwZtwpshiz1tt856FvEplAUWBAAQgMCCQd9MAEwQgAIEuEHBeIOcEOiiLDrarJD+MFykWET8IQsIPglWJiCI2z7T1fd/5efzgmBdmerbxLB4vl+Tkuw5Q4YhrkzjrZVtt4+4hgbGT3OZtt5qLkc/mOMKiz4NRyidgUe5r4b4RXXv7pIV8neVjkWLcQSYOr9NQxoYABJpFAAHVLH9gDQQgUD4Bb1c7UdLOksoIEHGTpJdLOkHSzeWbW1mPDwgPsKNErVvbuJlVOHOwkHIeJUftKyoovaVq77BS5BUzC2AnxC3ynWWbvIXxzMoI92+gu4eQ4Hl/Z75eNm/A349Xlu4V4SavPrkuBQIQgMCAQJEvIxBCAAIQiCGwUTjr4AStVRXf2/zQ4xWn5xVctZix2edmLMSmJP2hqolMeBwHX/BKlEWKg2qUURz+3KHBfxUSlJrblSFMuMXnjLiyILIwcpJiR2yz0L1rCAzh4BBFkxfPzMWrhc5r5bxetokyOQJOOv3WiO69AuhV0DrL7SVdHIT5XHb4b/3f6jSUsSEAgeYRQEA1zydYBIEuEfD2q09Juk9IzHpKBZPzg7kj6x0czszkJcjMM8kP/M7j9JpsReTPJayu5I1X9ec+V/TuEGWv7LG9QuWoff4xR4uZmaSp9otFm3+8YlF0hWk2271NzNeCQ7JTJkvAwvk/IoawmP1wRL1JVvEqsq/7vOL7V8yZrrx++BwCEOgQAQRUh5zJVCDQIALrB8F0WHao3FHuXHx4/0Fhi88kTPWWIL/V9ltwr2QULTdmyVm/FSKKedtX0W1pRe2ZZHuLGEe1c66bO09yoAr7/ksIdHFUhWP2eai7ZX/zjqyX91zxjxC+vM6gK7H5nyz2HWhiWZ8dy9whAIF1CeTd6GAGAQhAYFQCFjLeFvbULGKao96tWT4dVjrKzCXk+9heITqbz2BYvBUtfwphzr8etp4V7a8N7b0idM/sbIojFDo/T1uLH3q90mkx6ES5MytebZ1PW+xeEik0zgsBXSYRdCSWlRNL/zFi2+q1IVdYlduPY+dAPQhAoEYCCKga4TM0BDpGwA/gPlPjM0IPm2Vufpg9MJwlKjp9b/nyWRlvxXl6ttqQl8slbzzb5i16zufkcxw35DXo8Odmujic/Si6BbIqTM695fMqDrH+gQYEKKhq3k0Yx9eIX444L1decb1nZdts68yV5qS4X8kzNFxPe4SzUhHVqQIBCPSFAAKqL55mnhCYPIHnhlUgJ6mdqzgppVc4HAZ83OID4G+U5Achn+EpWpaH8xCOIueHcJ/d6XPxd4Oj8zkh6hMjtmXVzeqasF3P51W8ekiploCDgHiVxi9Q8soLQzLnvHqT/Nz3Dp+TzCvfzqJK7laz2Muzkc8hAIEaCCCgaoDOkBDoGAEnpP0fSa/KRE3sasXJYdVo1FWerSXtm0Vve0cIg1wUpcf3Q9KLQ0Lcov11of1MBEP79Gkj+LTquftMmiP8fTXbpveG8O+qbWC8aQLe+ulIh7fJAeJVJ59PrDOKpVeuPxsZBdC5n5wDigIBCEDgVgQQUFwQEIBAEQIONX10OO/kB5PY4oASr8vCi78rsoHvVQ5H7rfXDkRRNOS2H+Scr8jnfZz406tilOlwzS/NAn08OYQVb+J3hH3347DV0sE9fsmKYe2XrrfkOSlt3vXyE0k71WytQ+efG5n/yfca16VAAAIQQEBxDUAAAqUQcALK/8vOM91lzN68Tc7nCyxkZisLJT0wnKsq48HLD9+XhO1/ToTb5ch6sW7xQ6+F8AHhbXsZWyJjx46p57Npjoh4dRC73lboQASU5hBwXievDOcVvzR5S16lCX/ufGNeAfO9Za7isPd525EnbCrdQwACTSWQ97aoqXZjFwQgUC+B+2fhyT8Scr4UuY98P3vD+4SQaHXNGblPCydH9vKDWd7WoBgaDmvtAAMWTg4WQZmOWPiMsLI3W+CPUTlZGBe5Jjyehe3vQ8h7n5VzfiGvXnjLHqVZBDYLf0/eyjtXcRLl3QuefSxj5s4J5lXzvPK5yKAYef3wOQQg0EECRb/kOoiEKUEAAjkE9g7nTmLPO+UBfVO2Bcv5omYevP1A5nMHzkuU95Y4r2/36e2CDi7grWkOS0yZTlrr5MZOZmoxXLR4lcgre68MwQQeEQTwjpIcWt6rWt52ufZ3jv3jtn8LZ9Askiyqf5idS3O+IErzCeyXvUj5fISZF0p6TLhOIqpPrMo3JT0yp3dfl355EyO0JmYoHUMAAs0lgIBqrm+wDAJNJPBYScdIumOJxlngePuYgzn4LMV/hUPpRYfwKobfIjuyns859T2y3gxPr+w5RLlDTm9cELKZOp+Oz79YjM0WAW9RGMuh5mfOytk/XpVwII8y84IVnBLNRyRgvz8/os0Xwt/5zRF1J1XFQv6vWZoCX49zFb9ocYTPcyZlCP1CAALtJoCAarf/sB4CVRLwVjrncCkjUe3adnu1waHEHWWvaIAIP9T/NgSd+BEP5/9EbbHk/FZ+2PVB+qL3f3N2zqzXhFUFBGqVf43NGMtn5/xyImYV01Ed31az2X4B5CTLecX3D6+0exspBQIQgMA6BIp+gYIUAhDoB4HHSTo2y9/i/EtNLd4KdkFYCTkxBB1oqq1V2uVD80+R5LMfDjdd9L7vVSOHDj8qPDxXORfGahYBX08OAhMTbOGhDTj/9ObshcprIxB+PdtG6nueV8cpEIAABBBQXAMQgMDIBB4eHphHDeTg5KaOZHW3kUccvYG3BTm6l0Xe5aM372wLv3F/dziHVHRlz5B+Hc6GfDdsv+ssOCYWRcAi4ysRq8ZXZYJ7m5qjXnrbnrf0emteXvG9xBEDKRCAAASGEij6JhKsEIBAtwncN2zbc8jy2OKtXI6a5uS0Dg7gt7mTWrmyQHMo9fdkuah+EWtgx+v5nJGDOLwsRDgsY7pe2fNZMp93cUhxCgRMYCqcp8uj4RcbXgGts2wRzlnG3Mt2CXXrtJexIQCBBhNAQDXYOZgGgZoJ+HyDI1bdb8RtX0486WAQXq1w2Svr44uSNih5Pk6i+upse9rPw/mpkrtvZXd3kvROSY+W5GiGRe/xXjnwualPBjHMOadWXhYTM9r5lHzNzVVi8r1NzMA1Or5zeMmSdx/yyrnPYhLYpAqvMAYEWkqg6JdrS6eN2RCAQA4BBxxwziTnCIotjqr2rdBmzXw93jrz/pLeQDsRrle3LBIc0IIH+mnveIXPvvK2IwvfosVBPexLH/xnZa8ozW62d2LrmITGzrn2oAbk8HpeFj30+AhXeEV7n4h6VIEABHpMAAHVY+czdQjMQeAV4UyRt4PFli9nCTVfMCQprttvH/L7FAl/flHW0eGSzghnq2Lt6nK9jUK+rBdlCYL9hn0mRPi4c3YgjtMlvTHb/ueVRItiCgSGEXBEPUdgzCsOOPLUBmz9PFnS4/OMlbQ0bE2MqEoVCECgrwQQUH31PPOGwOwEHC3L55bytrrM9OBVoa+FvELXzwH237NEmg4+4K1loxSfc/pSiJ51xSgNO1zXYcgfkOVWeld4u1/0Xu7tSr/JggE4qfFnOsyNqZVDwC9WvhOuwbweLbS8klln8d/LlREpGJyT7FENiBZYJyvGhgAEIggU/dKNGIIqEIBAiwh4hchi6O4j2OwoXM+NDBt+mKTXR0TtmhneW8n2CNv22K43TWX3LPnsK8N/y8jJ5XMsDu/sFUQE6ggXfo+r3iesVDpEfl55QojimVdvkp8/JtibN8YvM/HkyJVODk2BAAQgMCsBBBQXBwQgsCYBb93yOZqYe4MFza+y1apHjvDg7dUnr0J5NSq2PDE83MfW72I9hyDfKvjmkBEE6Gws7DsHiPhUEGPO7USBQCyB/UIS5TwB7y2g3r5btzB3WPKYVTBvX30SIfpjLwPqQaC/BGIekvpLh5lDoF8EHG3PW/cc7jem+AC5E7ReHFN5jToOI3xWeLCKafqjTHT5DfLVMZU7WMf+cEh4H4IvcoZsBo23WToAh0OSc86pgxdMBVP63+xM06siXrR4Ndt/u3UWizxHAd07wgjP6/9F1KMKBCDQcwIIqJ5fAEwfAoGAzzQ4ul3s1j2fmfFZAUdqG6f4oLZzNy2MbOwEmE+T5CAHfSl+8LNAPSaLOuhgEUWLfeaIev8VhFPR/mjfXwI/DGfv5iLgVc4nB/FSJymHWT81O9sXk//JYs+ijwIBCEBgTgIIKC4QCEDABPyg7lw/MYLm5uxA9qFZ6OwPFUB3mzCezxvEFp+zOrEHocstnMzloHD+y2HgixSLTq/iOSy9t+yxXa8ITdpuG84I5UXodD4lb9+r+3p7SBBFm+S4zgEkfKbrWlwMAQhAII8AAiqPEJ9DoB8EnPvEIX7z7gl+q/zBkNOpaFAHiygf2t4uEvHvsgehR3Q8hLnzOXlr3W5ZAtuiwslY7aOXhj79gEiBQFECFvbHRnTi1Wmfj6y7HCzpqIh722nhxUXd9jI+BCDQAgJ5D0stmAImQgACBQk8OGzFi3lg/5ukXSX9tuCYM819GP1jI2xRs9B7pqS5wqWXZFpl3fg+7KAazw/nnDYvYWSHbDbXD0hylD0KBMogME/SmSEC5Fz9Wbi/V5LzydVdnAJh3wgjvLXVLy8oEIAABHIJIKByEVEBAp0n8P3sjIC3ucSUp5ecJ8iizVsHfVYipvjB7IjwE1O/DXV8aN1bIr01yg+oRYpzcvmB0Q+ufyURbhGUtB1CwEFMfhCxauzzdg568omaKTp6pVMhbJpjh7cl+yXGqAFxap4ew0MAAnURQEDVRZ5xIdAMAl598gNRXrFwcZ4gh/gtu2wZ3mrvGNmxV8GcW8ZRANtafB7DLC2e7lnCJPwA+G1J75fkrUgOH02BQNkEvM3XiZbzgpp4hdiJnp2cuc6yS3aO8JwIAxxcxXUttigQgAAEcgkgoHIRUQECnSbwhsjVHB8I9+qTH84nUbwt0CsnPheVVyzmHBTB5ytuyavcwM+dCNfbmxzx0AEjit6HvUXPK04ODW8/USCQR8CrnRbuXvF0eoC/h/9aiM91tvG1WQ6yN0Vcsz/P/p79QsQronUW57Vz4u68cnJYBV+eV5HPIQABCJhA0S9uKEIAAu0l4Ih7zo/it8p5xclv95rg2aMFko6U9KIR7kvvCis4bVht8YPqvUM+p+eUECDCkfX+km07+qykt/HmPO/y5fO1CBwo6SNDqFg8+e/JLyauCxHpvJrkACQ3hmv4DhE0vUo1FfqyiHKfa/937d/N9vm4wWp8f/MLnz0i7CX/UwQkqkAAAv8igIDiaoBAfwl4G463rsQkZ31q9vB00oRRbSbJb4J3jhzHb873KZCLKnKYwtUcWe+wYOs2hXubfhh9X4iEdlEPwrqXgIwu1iLwknANTQqMRY9Ffoxo8nkp15tNaHlVzOLN4dAt6vxfCzr/+N8WeP7cP/73zO+cgNqpFnaImKS3BH81oh5VIAABCAwIIKC4ECDQXwJ3lfTriMAFl2ahy29X0XYcr9I4kaXzx8QUJ//1Vr4mbl3bStITJb05BIiImc9cdfxg+J2wiuXw7xQIjEvA29q8vY0yTeCUbPXbZyv9N2Yh5lxQM4JsRqxZvM2INotD//hlxoxQXPO/M6trXslzm3FX0fAPBCDQUAIIqIY6BrMgUAGB2HwuzvvkulUUR816cRY16z0jDObksC9oQMLOGZO9Xc8hkc1spwiBmjdVP5j5fJO3GTngB/mc8ojxeR6Bd2TX0SvzKvH5UAIzwskiyatna/535t8+S+V/e0Xs8vDi4/TsnNUFMIUABLpBAAHVDT8yCwiMQ8DJMPOEkd+cPlfSieMMMGYbC5BvhKhYMfcovym2YLGQqrP4zMX9QiS8h5dgiB/UHIrcwuk4IuuVQJQuZgg4iIkTLFOqJeAXID67eXY4t+i/cQoEINBCAjEPJy2cFiZDAAIRBJwQ81E59fwG9T/DF35El6VVuVs4D+VIdTHFiX13ywThJTGVJ1DHwskPpD6T5bMXRYsDRPj8hpPhkpumKE3ar01gWbYysgQstRDwSylvwXUAHwfy8DlGCgQg0DICCKiWOQxzIVAiAedR8hazuYrPPzlK349LHDe2K2/L88pLbHJZ53txpEAfOq+qOOz6/wTx5BWoIsUPVj4z4Xxb3sZ4WZHOaAuBOQgcEyJeAqleAn5B5VxwfllS5X2r3lkzOgQ6QAAB1QEnMgUIjEnASS690jNX8YrO47Kkrz8dc4wizdYLkea8hTCmWHz4XIfDoU+6OJreM8LWwfuUMJjPUlg4WTB6ZZBD5yVApYtZCTjE+GL4NIKA/9YdHOYtE8yz14iJYgQEukQAAdUlbzIXCIxG4PyQ7HKuVl4F8QrUuaN1XVptr+rYTkfnyyt+ELkyOwt1jwnnRfL5Jm+9uUuWVNRBL4qW34ezaF5Bs5CiQGDSBByk5WWTHoT+ownMrD6/NcsR55+6ExBHG05FCPSVAAKqr55n3hCYDt372BwQ3lbi5LY+i1NXeZKkT2bBFNaPNOD74SySo1+VVSyUdpW0NBN0+46wrXCu8S8MW3c+KumqsgylHwhEEHBgklfn1Jt5IeHQ3ovCj1eF/W8nvqaUT8CR+5yE+OVs4S0fLj1CoEwCCKgyadIXBNpF4O1ZrpNXRTxEOT+Kz0rVdSbHD2uOXOXknzHFka2OyFaH3lTSVjjnwHLi2sdI2qSE/Hl+IDX7o2tkGsOROt0lEJMHyn9HPp9jge9ziDM/fm7w3+TGkpyM2z9Ogu3/+u9j5vczv/PvNw2f+7/+3D+uu2FJLyO65Clzd+CYPST9qUsTYy4Q6BIBBFSXvMlcIDAagb1DAsmY+4DD7j6txgd+rwB9fYTQ5t7K5+iB3xsNya1q7yDpgLDq5DNPRYrf5l8Rzjh4+9RPinRGWwgUJODzTz4HNVfxNfvfI+ZkG8csr2pZSHmFeea/G6z1O//ev/OP6639b//Oos6rY9726581/732/59ZRRtWPzZozThzHaXNd7MIfc+W5C2+FAhAoGEEYh6cGmYy5kAAAiUR2DyE0PV/84q3lnjV5HV5FSf4+e4h9K/fbMeUP2eh0B84hujzA53zSr1C0h1LOuf0rRDgwpEPOecU4z3qTJLA0yPzph2WrRC9cZKGlNj3zAqZX7b4x/9/rn/P9rn//r1SZtE2s5rmf8/8zitnMyttM5+vuRrnf7t+0fORFrAO9LNndj9yWgMKBCDQIAIIqAY5A1MgUDEBv5X9UoiyFzP0cklPCfmZ6ooS54c5hw2PfTh5fxAuMaLFW40eELb+7VzC1iKLzp+HxLonxACmDgQqIuDtYWdFjOWtqwSbiAA1pMptQ1qF/UOC7e3H3P77OUlO6XDteGbQCgIQmAQBBNQkqNInBNpD4DnhjEOsxd4a58ATP4ptUHI9b7nxmQy/QY8p14W6DpgxV/FKlcWZV7lig1XM1Z9Xv3wO6ytZwtIyg1nEzJk6EMgjcNdse6qTT+cVB4+JTSOQ11eraL/iAAAgAElEQVRfP/dKl3k7+IwDd2w5Igi//Dle0sEjtqM6BCAwQQIIqAnCpWsItICA7wEOyf2sEVZ1TpO0X/Yw4GAIdRSHND9dkoM7xBSfPbp/9hbXombN4gebO4V8ON6uV8b90GLJouk14cxTjH3UgUDVBLxN7caIVVb/redF6qza9jaP57x7H8jOcz4ybPMbZS4vlPThkgLjjDIudSEAgSEEynhgACwEINBuAl5xcehcB12IuSc4StSnJR1Y03ke2+i34n6YiD3w/SlJfgC5Ibhqi8z210p6cjjnFDPvubxsMWkh6kS43rZHHpd2/030wXq/WMhbDblA0n37AKPCOVq8+r7j7cVbjTDuH8MKuSP0USAAgZoJFH1oqNl8hocABEoicL8Q5c7CIrY40IJFTF3FY1vExYgob4PxKttXw5kvP7z4TEKR4nNgPhd2kaRDsrDDToRLgUBbCFgc3SfHWG/ZHeUhvy1zb4KdD87E6Reyly4+KxX7LOZ8eN52zQuaJngQG3pNIPaPtteQmDwEekLAh529iuJgCjHFb0KfIOkXMZUnUOfOks6Q5G0xMeXS7BzC+eEtrt8CFy0ORb4sRDPzdigKBNpEwNvz9sox2C8Jbi/pkjZNrEW2+uylV8d9RiqmWDg9U9JnYypTBwIQmBwBBNTk2NIzBNpIwNvaHEwhZlXH8/tr2OLzj5om660w3k7oHDBVFG9fvCYb6PBwlqGKMRkDApMgcIykF0V07BcrjgRHmQwBb5H8dgiNHjOCVw4d7MargxQIQKAmAgiomsAzLAQaSmDr8LDkQ86xxZG6DpJ0S2yDkuu9Iwvx+/IRgmCMO/xVkhyO3FsHLxy3E9pBoCEEHOjkrRHbx44lAtzEPebzp460F7Nd0vdZb0dG1E7cLQwAgdkJIKC4OiAAgbUJ+Evcbzm3i0Tj80UHSDopsn7Z1Sz6vpxF5ntY2R2H/ryN6czwtt4Hub0KRYFA2wl4K5gf2vO2s3qr7g5tn2zD7Xdeu/+V9N+Rdv40y+G3Y2RdqkEAAhMggICaAFS6hEAHCDw+e2jyylJsUAlHt3tiEBp1TN9bWk4eIzTwXLb6Ta8DQ0xJOjUEjKhjbowJgUkQeGi4rm+T0/n1IQ1ATN6oSdjZlz43D8mNd4qcsHPhOXoqBQIQqIEAAqoG6AwJgRYQ8BtRJ4L1majY4qAKPpR+WWyDEuv5XvZiSe+N2JIUM6y36zmynqP2+QGSAoGuEdhW0nkhCtxcc3OkSa8ws2Vs8leAg0qcHRnI5wfhLFRd+fgmT4MRINBgAgioBjsH0yBQMwEHZnCAhidFBpXwVrePhsS0dXypb5xF5PtE9lC4z5jcbP/vs4hYH5f0PklXj9kPzSDQFgJfDw/hc9nrv4v3ZIl3X8X21Ym71dspP5ilRnh2xEgO3ON73Xci6lIFAhAomQACqmSgdAeBjhHw2QefL8rLFzMzbYfZfXNYvfKDV9XF+azOHSMq30pJR0t6V4gsSJ6Vqj3HeHUQeEl4WZA39nclPUrSzXkV+bwwAW9HtrDNKz6L+QZJb8mryOcQgED5BBBQ5TOlRwh0jYDfcjqBY2x+qCtCrpKv1QTCEQGdKHf9yPG95dCrbH5IpECgTwScS+032UP4wpxJ+zygw227LmWyBPxc9r3sfNpDIob5/gSD50QMTxUI9JcAAqq/vmfmEIgl4PuEzwP5fNGiiEYzW+F2zsIf/z2iftlV/DD4obANJuYe54dDz89JhCkQ6BsBbwF7eMSk/RLFZ6Eokydgseqk33n5+BwB9e6S/jB5kxgBAhBYk0DMwwXEIAABCHj1yaLEkZ9ii1egnpLlaLo2tkGJ9e4ZtsFsH9nndVkErF2ylSiHB6ZAoE8EYvNBecvYXSU5rDll8gQsoGJClTvQj/N5USAAgQoJIKAqhM1QEGg5gdtLsiiyOIkpjt7lL3ZH86uj7BFCm28QMbhXzRxxzwktKRDoEwGHMz8tW2HeLGLSPt94GMEkIkgVr+LzmE4Qnvec9uOw3Y9zm8WZ0wMEognk/WFGd0RFCECgFwQcVMLhc51sN6Z4i4kPn38rpvIE6njbocOb522FmRn6RSEKVh0BMCYwfbqEQC4B54H6dpYI+965NaVfZ7nR/GLikoi6VClGYD9Jn4rYNn1p2ILpCKIUCECgIgIIqIpAMwwEOkLA94yXSXr3CPPxF7uT7F4wQpuyqvqQ/ClZwsl7RXbo8OuPC7lYIptQDQKtJ/D67CXDGyNm4RcLTix9aERdqhQjcMdsC/TPs3vtJjndOE/dkzMRdUax4WgNAQiMQgABNQot6kIAAibg+4aTajpyXew95OQgourYZvIfmSj64QhR+bxa5siD5IHieu8LAW9z/WsWvXLzyAnvK+krkXWpNj6BH2XbkJ1cd67ie+pSSceMPwwtIQCBUQnEPvyM2i/1IQCBbhPwA9eZIYRuzH3EB9CdnNYH1r2tr+ricxv/E7Edxnb5gcQrbLaVrXxVe4rx6iLwurAKFfP3/DNJ3mJ2UV3G9mRc37Ni8jz53uqdARQIQKAiAjE3yopMYRgIQKBlBHz43AkfY4I0zEztOZJOrGGem0r6RvbW/P4jjO0HxC+OUJ+qEGgzgbuEv5E7RE7C56G8OuItZJTJENgpWw0/L6Jrr/ATACcCFFUgUBYBBFRZJOkHAv0kcGA4E7Fh5PSdiNNf9HUk5LxfFq3qVEmxoc0dRthb+f4SOTeqQaDNBBxo5T2SXjLCJJx82oFXfFaHUj6B+WEr8cY5Xft8qXNHUSAAgYoIIKAqAs0wEOgoAd9D3ibpVZHnobwl7ldZYIcH1/Tm+lmSjs+2xTjZbl7xtsOPSnp+XkU+h0BHCDiUucWQUxbEFP89O1m2//6daNd/M20uFiwLhkzACcTXfl7y/x+WWHzm98Oer9Yb0rfHHHY/mrHF500dDGeuck22RdrRFCkQgEBFBBBQFYFmGAh0mMC2kr4ccpHETvP94aHLuaKqLH6T+3FJPgQfU/yAaAH1sQ48HMbMlzoQ2DuEzx7lgdznBv+QnRu8WZIf/IelDbAwGfb72V5mDPu9n1mGCRz3O9vvbc/axb8b9vu2et/3qS2z1cOr2joB7IZA2wggoNrmMeyFQDMJOD+Uc8nEbo+7QdJzJX2+hun4jMe5kraJHPt3IbT5byPrUw0CbSbgVRUHJTikzZPooe0+j+akuhQIQKACAgioCiAzBAR6QuApYctb7HkoHz7fraYvfZ/DcpLKjSJ947rPk3RLZH2qQaDNBJwo+6zsBYdTAPCc0A5PPk3SZ9thKlZCoP0EuDG234fMAAJNIeA31w7/7ZwkscX5mZ4g6fLYBiXV81mE4yQ5KmBM8RYlhxN2OHQKBPpA4G5ZYIIvZDnf7tOHyXZgjg5j7pVDCgQgUAEBBFQFkBkCAj0i4HMIZ2ThkHed5bzD2ii8d99f+q+uIT+Uz279QNKdIv1zRdjK5+SWFAj0gYBXiE+S5BUpSrMJvDnLYff6ZpuIdRDoDgEEVHd8yUwg0BQC9wj5k+4VadBKSU7i+Y4aEtc6l9VXslDsW0fYarF3jqTHZEl5qw5+EWEeVSAwEQI+W/PB7G/aaQB4ZpgI4lI6PTaLiHhwKT3RCQQgkEuAm2EuIipAAAJjEHASWoc1Hha2d1h33sL3uBDcYYzhxm7i6F1vzFa/XjtCD14xewVR+UYgRtW2E3CQGG/nu/cs0e7aPr8u2O9zms/swkSYAwTaQAAB1QYvYSME2kfA9xZvJ/HKUkzOJc/Q2+kc3KHq81BeffK2wx0jMV8t6VFZkt3zIutTDQJdILBFlrvtvyW9eITgK12Yd1vm4K2WT22LsdgJgbYTQEC13YPYD4HmEnCEu0+MkHPJMzlNklevbqp4WreV9JPIrXw27V2SXlmxjQwHgSYQ8JnBj0h6WFhh5jmiCV6ZzsX3xGaYghUQ6D4Bbnzd9zEzhECdBHweyqLozpFGOBGnV60cza/K4q18Lx1h3L9IumcmopzPigKB1hJID9Z9NF8babUSzV8ruWwySHy7TvLbi67Rhsf/XLv/6ho96pIbdO/LbtR68xMpGfJEsWBI6lxXc/21y7xk+O/d72z13WbtMost6XwpHWbj/ETpGt38858L5snnHl3++bvZbJyXaN78IXMdAIy3cTDPWWz8Zz8LEmnL9aXVa0w8TXX6W38sJ0GmQAACFRBAQFUAmSEg0HMCziXznUycbBLJwUElHpytXJ0fWb+savPDtrz7Rnb4ohAKPbI61SDQPALpEp2rRA9onmVYNCKBrybLBikhKBCAQAUEEFAVQGYICPScgEOb++zE20bg8LtwHupXI7Qpo+r2kr6ZbT10Dpy84i1/D8pWzCz4KBBoJYF0qRyW35H2KO0mcGqybBCIhwIBCFRAAAFVAWSGgAAEBtH4viRFbzHx7hQfin56DewOlfSeiGhj10uDN/e/qcFGhoRAKQTSQ/VDpYMXAZQ2E0h1ejIVfX9t80yxHQKNIICAaoQbMAICvSCwQcijZNERc++xiHpTJmScILLKVZ67Z1H2viVpmxyvOBfUsyV9thfeY5KdJJAuHUS/9JZZSrsJnJEs017tngLWQ6A9BGIeYtozGyyFAASaTuDRIXHt+pGGrpD0tJCYN7JJ4Wo+9/21TOztkdOTD5gfHvJIFR6UDiBQB4F06SAc/051jM2YJRJIdVYypT1L7JGuIACBOQggoLg8IACBqgk4Ce1bRkiye0FIsuvId1WVpZKOjBjM4ZyfH1GPKhBoJIF0if6kRHdopHEYFU8g1deTqUF+OgoEIFABAQRUBZAZAgIQuBUBr/AcI+kFw0IkD2HllR4fdPfb1esqYnkXSQ5kkVecgJdtM3mU+LyxBBBQjXXNaIalOjuZ0u6jNaI2BCAwLgEE1LjkaAcBCBQh4GScp0q61widvFXSYRWeh7JY2zjHvh8TwWwED1K1cQQQUI1zyXgGpTonmdKu4zWmFQQgMCoBBNSoxKgPAQiURcD5oU6X5NDhMeUaSQeGaH4x9YvW+bUkB5SYq/w2ok5RO2gPgYkRQEBNDG3VHX8rWaZHVj0o40GgrwQQUH31PPOGQDMIOEDECZJig0rcGFZ8flmB+TH5cf4s6Y4V2MIQEJgIgXSp/iDJK8JzlVuU6g9K5O20jo7p4C5rllVK1/mdI2eu+mel6baOXOn/zpRU6eB3a5bVStb6XapVStaKxDk93tr9rwg2Tvfn3lPdsk7/a9s/Tyu1eo2+phus+7v5unnwieuma9njPvwzU1YPxvb/N6/pYgae7zSL6eJ689aZ7+p1frdKqzR/rTFXyvOdZrBKNyTHqeq8eWuh5f9CoD8EEFD98TUzhUATCWwoaSqsLMXad7ak/SRdFdtgzHrfz7YZPiSnrQNbcAB/TMA0q59AukS/UJKzlTbVL7VCD0yOk19gUCAAAQj0ngACqveXAAAgUDuB+ZK+Kw2Secbek/43ewv+2lu93S1/Gj/JwqffL6dbv73/t/KHpkcIVEMgXaJfKtE9c0b7hZbrQQioanzCKBCAQPMJxD6sNH8mWAgBCLSZgIXKyZJuHzkJb41ZnNX/0FpbgiKbR1Xz9rw8e34h6d5RvVEJAg0kkC7Rr5ToHgioBjoHkyAAgcYSQEA11jUYBoHeEXi2pI+NMOvLpUHY3gtHaBNbdZE02K7k1bG5ynck7RzbKfUg0DQC6RL9WklusJQLtVwPZgWqad7DHghAoC4CCKi6yDMuBCAwjIC35r08S7S7MBLPNyU9RdIVkfVjq1kUfSui8hfDeayIqlSBQPMIpEv1G0l3y7Hs51quhyCgmuc/LIIABOohgICqhzujQgACwwncJssN9ZnsTNRjIgE5mtVJkrx6tXY0r8guhlY7Ijtf9YaIDo6U9OKIelSBQCMJpEv0WyW6KwKqke7BKAhAoKEEEFANdQxmQaDHBO4j6TRJt4tkcFO23e5VkpZF1s+r5u17P8jyTe2YU9Hhib1a9v68DvkcAk0lECmgLtByPZQVqKZ6EbsgAIGqCSCgqibOeBCAQAyBR2UR8Lw9bpOYyiGk+W7ZdrqfRdafq5oDWpwlacucvpxf5olB7JUwLF1AoHoC6VL9TtJd5hw51c+0Qg9DQFXvH0aEAASaSQAB1Uy/YBUE+k5gQQhTfvgIIH4raW9Jvx+hzbCqh0p6jyTbMFe5RtK/S7qk4Hg0h0BtBNIlukiJdsgx4KdarocPEVB+2bBTbcYz8FwE/k/SlSCCAAQmQwABNRmu9AoBCBQnsGkmUD4raa/Irryl7hOZgHpOZP3Zqnn1aY+IPs4MZ7V8DosCgVYSSJcOXjjk5TKbTUD5nKDPC1KaR8B59c5tnllYBIFuEEBAdcOPzAICXSWwvqTzpUGempj7lcXMCyV9ZMwku/eX9MOI8OUe56mSPtdV8MyrHwTSJbpYie6cM9ufaLkeMWQFCgHV3MsEAdVc32BZBwjEPJB0YJpMAQIQaDGBxwWhskHkHK6X9IyQmDeyyaDahuGN7b0iGv0hiLoyI/9FDEsVCJRLIF2iPyjRnebsNdVPtEgPT94rB2xZsyCgynVHmb0hoMqkSV8QWIsAAopLAgIQaAOB12ZG+jxU3rmkmbn8VNKeI+aHembYApjHw6tP75X0iryKfA6BphNIl+qPku6YY+f5WqhHIKCa7s1b2YeAapW7MLZtBBBQbfMY9kKgnwTmSfqkpP0l+d95xSLnZEkWRV6RyitefTpD0iPyKkq6QdI+kr4eUZcqEGg0gXSJ/qREd8gx8jwt1M4IqEa7cm3jEFCtchfGto0AAqptHsNeCPSXgLcZnRPxtnxNQj7g/sac81C+D75F0v+LRPvzTJw9MKvvMOYUCLSaQLpUf5JyBFSqH2uRdkFAtcrVCKhWuQtj20YAAdU2j2EvBPpN4JHhPNTWkRgul3RAtrL0tTnqP1bSVyK3B67KglrsK+mrkeNTDQKNJpAu1Z8l3X5OIxFQjfbhLMYhoNroNWxuDQEEVGtchaEQgEAgYEHkKHsLI4ncHAI++E372mULSd+QdN/Ivr4ckudGVqcaBJpNIF2qv0i6HQKq2X4awzoE1BjQaAKBWAIIqFhS1IMABJpCYKPsjfmHJD19BIO8wuT8UE5+O1M2y7YDHi9pv8h+rg1nn74ZWZ9qEGg8gXSp/irptjmGnquFeiRb+BrvzjUNREC1yl0Y2zYCCKi2eQx7IQABE3CSXZ+Hul8kjpUh4eebQ32vXh0p6aDI/FJuZhH2FEkrIsekGgQaTyBdqkskbT+noal+pMu0a3ISYcwb79B/GYiAapGzMLV9BBBQ7fMZFkMAAtMEnPTWkfbmfvj7Fy2LqAMlfSYLb75U0tskOVFvTLk4i7rn81fe7kSBQGcIpEv0NyXaLmdCP9Sl2g0B1Sq3I6Ba5S6MbRsBBFTbPIa9EIDADAGHMz9E0rIRkPgclMOV+xxVbGLeG8P2v8+PMA5VIdAKAulS/V3StgioVrhrFCMRUKPQoi4ERiSAgBoRGNUhAIHGEfiApINHCCox6gQ+KOnFkhyMggKBThFIl+hSJdpmzkml+oEu0+6sQLXK9QioVrkLY9tGAAHVNo9hLwQgsDaBrcK2vD0mgOYCSY+S5HDoFAh0jkC6VJdJyksL8H1dqj0QUK1yPwKqVe7C2LYRQEC1zWPYCwEIDCPwAElnSrpNiXh83ulxkiyiKBDoJIF0iS5XIr+EmKt8X9dr9+SEdVZh3xCCs3SSTcsnhYBquQMxv9kEEFDN9g/WQQAC8QT2kXRiiNAX32p4TSfMfYYkn3taXbQz2kOgqQTSJbpCibbMse97ul57IKCa6sWhdiGgWuUujG0bAQRU2zyGvRCAwGwEFkh6R5br6WUFEd0i6ZUhzHnBrmgOgWYTSJfqSklOKD17SfVd3aBHIaCa7cu1rENAtcpdGNs2AgiotnkMeyEAgbkI+DD8lyU9tACmd0p6vSQLKQoEOk0AAdVZ9yKgOutaJtYEAgioJngBGyAAgTIJ+G36eZLuOEKSXI/vbXsfCqHR0zINoi8INJVAulT/kLR5jn3f0fXakxWopnpxqF0IqFa5C2PbRgAB1TaPYS8EIJBHwPe1p0v6SJYsd728yuFzi6ejQ7hyxFMkNKq1n0C6VFflBl9J9G1dp0cjoFrlbwRUq9yFsW0jgIBqm8ewFwIQiCXwtix302siK79H0n9LQjxFAqNaNwikS3S1Em0252xSfVs3IKBa5nEEVMschrntIoCAape/sBYCEIgnME/SlyQ9YY6tfDdJejuhmOOhUrNbBNKluiYicuW3dL0ewwpUq3yPgGqVuzC2bQQQUG3zGPZCAAKjELi9pK9JuueQRg4S8QJJJ0laPkqn1IVAVwikS3StEm2SMx8EVPscjoBqn8+wuEUEEFAtchamQgACYxG4RxBRd1ij9UWSFks6Y6weaQSBjhBIl+o6SRvPOZ1U5+gG7cUKVKucjoBqlbswtm0EEFBt8xj2QgAC4xB4bggSsYGkb0t6vqTfceZpHJS06RKBdKmul7RRzpy+qeu1NwKqVZ5HQLXKXRjbNgIIqLZ5DHshAIFxCDga35GS5odgEY48RoFA7wlECqizdb0ei4Bq1eWCgGqVuzC2bQQQUG3zGPZCAALjEthU0gpJDhxBgQAEvAS7RDco0YY5MM5Wor2TI9dJLv0GArA09jJCQDXWNRjWBQIIqC54kTlAAAIQgAAExiCQLtWNWSRKb22dvaT6hubpsQioMQDX1wQBVR97Ru4BAQRUD5zMFCEAAQhAAALDCKRLByuy6yOgOnd9IKA651Im1CQCCKgmeQNbIAABCEAAAhUSSJfqZkk+IzhX+boSPY4VqAodU3woBFRxhvQAgVkJIKC4OCAAAQhAAAI9JZAuHZxrWoSA6twFgIDqnEuZUJMIIKCa5A1sgUBBAqmU6KCc8wxrjnGTRr8HbCvpxjHa3TxGG9u60RjtbhmjzdrsV2m+Ei0c6pIFWqD5WjD0s1QLtXAQ7W/dcoPWG/Q6rCRzfOYVgtVD2iWaJ2mh5g35LB3YMNx+2zgdkXDdkgwept3vuiWd4zPbnwy1w79dpHTovOdr2pZhdixQsgbj2cZOB7OfrQ/3P5s4sCdm9+Fsn00zXZfP9PyGszMB2zg7g9FtlBZo9SzznjeY13D/Ttv4r89SbTbUb2t6JNVZmqfHswJV8AZdbXMEVLW8Ga1nBEZ/eOoZIKYLgTYRSF+ibbVKp69lsx+Whv+tp7M8QLp+Ij98rttu+iF5toczP1gOf/iebjPbPcdjDW83mx2e5OwPufMG/Q0fzePMZn+b3I2tEKiKwJlK9AQEVFW4SxkHAVUKRjqBwHACCCiuDAh0iEB6sG6nBfpLh6bEVCAAgfoJIKDq98GoFiCgRiVGfQiMQAABNQIsqkKg6QTSpbqtpL823U7sgwAEWkXga0r0n6xAtcpnCKhWuQtj20YAAdU2j2EvBOYgkB6k7bVIlwAJAhCAQIkEzlCifRBQJRKdfFcIqMkzZoQeE0BA9dj5TL17BMIZqL93b2bMCAIQqJHA6Uq0LwKqRg+MPjQCanRmtIBANAEEVDQqKkKg+QTSg7WNFujS5luKhRCAQIsIIKBa5KxgKgKqfT7D4hYRQEC1yFmYCoE8Aumh2lqpLsurx+cQgAAEogmkOk2/1xOTUwc5o9Ysb8hiYR4R3Q8VqySAgKqSNmP1jgACqncuZ8JdJpAepK20SJd3eY7MDQIQqJiABdRl2jc5ScsRUBWzH384BNT47GgJgVwCCKhcRFSAQHsIpC/TFlqhK9tjMZZCYA0C6SDzWDqUyVyfSf50eEm0elbGeePN1nC2PqdtGG6J5zWblbPNeXr8ue2fa7xh9udxHJ6r7eu6VAcioFr114qAapW7MLZtBBBQbfMY9kJgDgLpQdpMi/QzSSvmeKRcMetDqtvN9tA122d+wEu0cpZ2qyT5Z1hZqdkfbueyf+XQufkhNBnMO6bMzWDYA+30469tHjbC6sFnw4vnP9tDsHkP/2z2sTzKcD7TD+mz2zhvFhtXa5XSWeww03lz2OiZDytuN+yzGT8Nb2P7h/NwX06PPPz6XD3nZ7MLodmuzWnhYirDi6/5dT+zfbPx8Cdz2T+Oje7TKahnYzL8r252xu5r1ZD006mu13H6c7KuWGMLX8zdpp46CKh6uDNqTwggoHriaKYJAQhAAAIQKJkAAqpkoCV2h4AqESZdQWBtAggorgkIQAACEIAABMYhgIAah1o1bRBQ1XBmlJ4SQED11PFMGwIQgAAEIFCQQJMFlLdn3jjrmbSCE29B890lndcCOzERAq0kgIBqpdswGgIQgAAEIFA7gSYLqJ9IeprU26ik185x/rT2CwcDINB2AgiotnsQ+yEAAQhAAAL1EGiygPqxpMdLJBav59JgVAh0mwACqtv+ZXYQgAAEIACBSRFAQE2KLP1CAAKNJoCAarR7MA4CEIAABCDQWAIIqMa6BsMgAIFJEkBATZIufUMAAhCAQFsJzJe0haStJN1G0qbhZ6M1/r2epEWSFmg6Aa1zgTm3l3+uk3S9pBvCf/1vn0u5WtI/wn9nyx3WFmYIqLZ4CjshAIFSCSCgSsVJZxCAAAQg0FICFkz/LmlnSQ+VdE9Jm0vaQNL64ceCaUYsxU7TiYGXh59bJN0s6aYgqn4ryWd1zpd0bhBVsf02oR4CqglewAYIQKByAgioypEzIAQmSyA9UOtrY22vVYM34u0tqVZrnlZpdfjffN2sVbpFV+mW5CQ5RHFfyzxJd6558l5huaTFUb68anQHSXeVtJOkXSQ9PKw01YXWTH8TBNV3swhyv5T058DZwquJBQHVRK9gEwQgMHEC7X7AmjgeBoBA+wikh+gBmq+Phq1F7ZvAjMWpUiXy2/vpn3TwFn+FEvlh8jql+oukPyrVnyRdrEX6RfK+wfaorhdvJfNqRZ3FD/bPbKDmyJ4AACAASURBVGGEs+2C3XtL2kHS9mGFqYnfhd7ud6k0uL6/LulkSRc0LK8RAqrOv0LGhgAEaiPQxC+N2mAwMAS6QCBdrJ2V6GtKBtuO+lQssi5RovO0Wt/TAp2jm3WpFupqXaarO7Rq5fM4V9Xs2Isk7SrprzXbkTe8V+u2CatML5Rk4eQteW0sfpHwM0nHB0Fl9nW/MEBAtfFKwmYIQKAwAQRUYYR0AIFmEeixgLq1I6ZXsK4IW6B+p1Tf1kqdoWP1q2R6VautBQEV57n7Z0lUl4SteV5t8ra9LpQ0BKPwdj+vTH0mnKGqY24IqDqoMyYEIFA7AQRU7S7AAAiUSwABNSdPr1L50P5xukWnaaWuSE4YHOpvU0FAze4tiySfDztC0tPb5NSCtp4m6S1hi5+3/llkVVEQUFVQZgwIQKBxBBBQjXMJBkGgGAEEVAS/6dWpy5TqJ0p0qhbooy06P4WAGu7ih2Vb2l4qaS9Jm0VcBV2r4sAq3uJ3qqSPSPpdBRNEQFUAmSEgAIHmEUBANc8nWASBQgQQUGPhuymTVEfoWi3Tibqp4Vv8EFC3drHF0muzwCKvkOQzT5TpMOnHZjzeKOmaEIhlElwQUJOgSp8QgEDjCSCgGu8iDITAaAQQUKPx+mft6VUpB0f4hFbr48lRlbzBH8dYBNQ0NW/Xe1yWU+nVkh4kyXmcKLcm4FDzn5QGUTkvnMDWPgQUVxwEINBLAgioXrqdSXeZAAKqBO9Oi6nX6FK9LzlpED69SQUBNe2ND0hajHCKujSdY+rIsEoX1SCyEgIqEhTVIACBbhFAQHXLn8wGAkJAlXYROODE9yW9S/N0SnLkIP9UE0rfBZSj671L0m5ZsAi+w0a7In+fnQ97r6QTw9a+0VqvWxsBVZQg7SEAgVYS4MunlW7DaAjMTgABVfLVkepGzdPndYsOTo7TjSX3Pk53fRZQFk9fyIIk3GkccLQZEPCK6sVZgt7nS/puQSYIqIIAaQ4BCLSTAAKqnX7DagjMSgABNaGLI9VvtFovT47WVyc0Qmy3fRRQCyQ9IwRGaGsi3Fj/VlXvekkflnR0xvbXYw6KgBoTHM0gAIF2E0BAtdt/WA+BdQggoCZ0UfhclHS1pCmt0BuT4+RzJXWUPgqoAyW9r6fhySd5jfmadrjzl0s6eYyBEFBjQKMJBCDQfgIIqPb7kBlA4FYEEFATviBSrVKi47Vc/5McpysmPNqw7vskoBZKOiSc2yFE+eQuNgsp5456qzSIRBlbEFCxpKgHAQh0igACqlPuZDIQEEEkqrkIVinV97K3989KpvTHaob85yh9ElBPCg/2fUyMW/FlJSfitXh6cwh97v+fVxBQeYT4HAIQ6CQBBFQn3cqk+kyAFaiKvD+9pe/rWq39k6N1VUWjepg+CCh/N+0i6VRJG1bIlqE02Jp6jKQXR8BAQEVAogoEINA9Agio7vmUGfWcAAKqwgtgOl/UjzRP+ycf0J8qGrkPAuoekk6RtENFTBnmXwT8YuCEEKUvjwsCKo8Qn0MAAp0kgIDqpFuZVJ8JIKBq8H6qL+oyHZCcpJsqGL3rAmo9SV+U9NgKWDLEugT+LOkJkn4WAQcBFQGJKhCAQPcIIKC651Nm1HMCCKhaLoCVSvVhXailydlaOWELuiyg5kt6e4gKx/fThC+kId179emFko6XBltU8woCKo8Qn0MAAp0kwBdUJ93KpPpMAAFVo/dTvURTOjKJe/gc19AuC6hHhtWnLcaFQ7uxCVgwfU7SU0foAQE1AiyqQgAC3SGAgOqOL5kJBAYEEFA1Xgip/qh52jc5Uj+doBVdFlBfkPRESXw3TfACmqXrv0raS9KFIwyNgBoBFlUhAIHuEOBLqju+ZCYQQEA14xr4qZZppwmuQnVVQO0dou41w4v9s+J1kt4y4rQRUCMCozoEINANAgiobviRWUDgnwRYgWrAxZDqVZrSuxNp9QSs6aKA8py+IWnHCfCiy3wCZ0jaV9LN+VVvVQMBNSIwqkMAAt0ggIDqhh+ZBQQQUE26BlL9Xiu1d3KsfjsBs7oooJ4s6eOS1p8AL7qcm8ClWT4znz37zRigEFBjQKMJBCDQfgIIqPb7kBlA4FYEWIFqwAUxnR/qA8kyvXQC1nRRQH1U0nMmwIou8wm8TdLrs59V+VXXqYGAGgMaTSAAgfYTQEC134fMAAIIqCZeA6luVqIHJ8t0QcnmdU1ALZL0N0lE3iv5QonozsFOdpF0XUTdYVWaLKCulvQjSbeMObemN3tJ9tLh9003Evsg0FUCCKiuepZ59ZYAK1ANcv1qfUaX6znJSVpeolVdE1AHSTq2RD50FUfAW/ceLRUS+E0WUHEU2lnLIee3lXR5O83Hagi0nwACqv0+ZAYQYAWqudfA35Xq8cmUzivRxC4JKH8HmU0bgkd4i9ufszxJv5B0kaS/hwdYB17wj5MAL8gSAW8gabOwora9pNtLuoukO4TPS7wUCnX1VkkWQONs3ZsZGAFVyAVjN75B0iaRyY7HHoSGEIDA7AQQUFwdEOgYAVagGuVQn4Z6XTIlP6yWVbokoO6aRX87X9LGZcEpqR+/4feqoUWSt7mdJOlsSX8p0P+GWZLg+0l6cNbXbpLuIWlLSZtn4cMXFuh3nKaeh0XrleM0XqMNAqogwDGbO+CHrx8KBCBQEwEEVE3gGRYCkyLQCAE1HURh/G1rqRYq0bxJMaq434v1c909OVsrSxq3SwLqKZI+IcnnoJpSLJ6+LukYSd+X5ASz/l3ZZdOwKuUHYW+lcxjx7SpIIuyzQU6Y+8MSJoSAKgHiGF2cGa6ZMZrSBAIQKIMAAqoMivQBgQYRaISAki5OlmmHIljS/bVI22l9Lde2SnQHzdcOSrWTpPtrnu4YVi28ctF8obVaz0yO0qeK8FijbZcElKO/HVGBaIhBb5Hkc0GvlXR8TIOS63iFyiJqSbbidW9JFliTuLbfI+mV2fa9MnKUIaBKvggiuztB0vMi61INAhCYAAEE1ASg0iUE6iTQFQE1G8NUSrREW2je4FzJ/ZTqCUq1pxL5AbSZJdU5mtLuJSXW7YqA8nkhC5VnN8BpFk9fySK2/T9Jv6zZHq/GWUA9Kjtz9QJJ9yzRHgvEBxbcirimOQioEp0zQldvzFZFDxuhPlUhAIGSCSCgSgZKdxCom0DXBdQwvuli3UvzNaVUj2jYdrAZcy/XSj04OUZ/KOH66IqActLc0yTtWgKTol38WtLuIZx60b7Kbu+VBgsVB6NwoIpxv7dXSNpD0rdLNBABVSLMEbp6YXY9fGiE+lSFAARKJjDujbhkM+gOAhAoi0AfBZTZpQdpoRZo32zT0+HhDX5ZSIv3M50Tar9kmU4t3pm6IqA2ChH47l4CkyJdWFg8QdIZRTqZcFsHm/B5sWdJ2nmMsbxd74NZUIyDx2g7VxMEVMlAI7rzaunjpVLuJRHDUQUCEBhGAAHFdQGBjhHoq4CacWN6qNbLIox9Sau1l5Kx39aXf1Ws1quTo/SOEjruioDyGZ8/hZDfJWAZu4v/y4TcPmO3rr6hz0k5wIUDTsQWRxN8uKSLYxtE1kNARYIqsZoTAzuKowOcUCAAgZoIIKBqAs+wEJgUgb4LKHNND9L2WqijlQwejJtxn0v1+WRqsIpQtHRFQG0VwoR7W1pdxW/zfc7oI3UZMOa4tw12e3vfnXOucUfDfG52lurTY441VzME1ASg5nR5Vdhu6vD6FAhAoCYCzXiwqGnyDAuBLhJAQE17dbClb6G+qUQPa4SfU/05mRpEDyxauiKgHATkd0VhFGx/UwjW8L2C/dTVfJssoeq7JR0wh4j6cBaK3WdmJhGKHQFVvecdVt/n9X5b/dCMCAEIzBBAQHEtQKBjBBBQ/3Joeogeq/n6bEMSta7WTdo6+bD+UfCS64qAum9IUlsQR6Hmfpu/ZziLVaijmhvvJ+nlWVCOh4ZAEzPmeIukz3ddMCH7EFATAjtHtxZOFlAWUhQIQKAmAgiomsAzLAQmRQABtYaA8irUIn0xHLqeFPL4fldq7+QYnR7fYGjNrggon8n5TkEWRZtfGRKSnl+0owa095ZIh4R/kyQH6HA5RNKxE1p9cv8IqOod/7MgoIq+iKneckaEQIcIIKA65EymAgETQEDd+jpIDx3kivqRpIW1XyGpDkum5BwuRQoCqgi9W7dt+xa+YSR2DMmJb5D0zPJQDe0JATVhwEO6d/AIr0DdXP3QjAgBCMwQQEBxLUCgYwQQUOs6NF2iHyrRg2p39Wp9PDmqcOLYrggoP+jXvfLjc0E+H+RzQl0qXoFyQl5vUZxkQUBNku7wvh1uf6/qh2VECEBgTQIIKK4HCHSMAAJqiIBarHdqnl5Re0S+VN9OprRLwUuuKwLK+Z+cwLbuclZ4IF1VtyEtHB8BVb3THDHy+dUPy4gQgAACimsAAh0mgIAaIqCWDhKQ+sFjQa2uT/WXZEp3KGhDVwRUE8KY2xUWTg5l/tGCfuljcwRU9V4/IhvSycIpEIBAjQRYgaoRPkNDYBIEEFBDBNQSPVqJPifJyVvrLFdrmbZMpNUFjOiKgNokJNL1fOoul4ZodefWbUjLxkdAVe8wbzn9UPXDMiIEILAmAQQU1wMEOkYAATVEQC3WgzRPX5W0da3uTnWNbtB2yQmFDoB3RUD5nI4jiu1Qq0+mB/dZqN9Leq00CHs/iZxJDZhm6SYgoEpHmtuhzz/5HBQFAhCokQACqkb4DA2BSRBAQA0RUAfrPlowCB9+20kwj+7TAuom3SE5XtdFt1m3YlcE1PqSzpT0iAIsym66PItu9hpJR0m6pezOO9gfAqp6p/67pF9WPywjQgACaxJAQHE9QKBjBBBQQwTUYt1L8wZvbW9fq7sRUGvid1j5E7OHwafV6pN1B/eZKF8r783E3dcaZlvTzEFAVesRr4xuJhV6AVOtxYwGgY4SQEB11LFMq78EEFBDBNSh+net1hlKdLtarwwLqBW6bXKcbixgR1dWoPz983ZJryzAYpJN/bDqc3NLsp/LJzlQi/tGQFXrPCfP3bLaIRkNAhAYRgABxXUBgY4RQEANFVA7KdUpkrar2d3/0FbaOjmcIBLBDw7HfGzt0RHnvij+FiI4Wkz5zBbhzv/FCwFV7Q3lPEkPqHZIRoMABBBQXAMQ6AEBBNRQAbWLVuvLSrR5rZdAqj8kU/q3gjZ0ZQXKGB4s6RuSNizIZNLNvRp1U7D15ZJ+M+kBW9I/AqpaR31B0pOrHZLRIAABBBTXAAR6QAABNURALdG+SvSpbMvYBrVeAiTSXRu/w8r/KluF2r5Wv4w2+A2SviLp05K+L+my0Zp3qjYCqlp3+lyeBTwFAhComQBb+Gp2AMNDoGwCCKihAurFkt6nRPXe81KdmEzpOQV93qUVKKM4WtLBBZnU0dzn2P4s6aTsXMqRPRVSCKhqr7yXSnp/tUMyGgQgMIxAvQ8T+AQCECidAAJqqID6uBIdUDrsUTtM9ZpkahA4oUjpmoD6D0k+27GgCJSa214j6csh6MRPJf1FxZIl1zyd6OERUNGoSqn4xHCdldIZnUAAAuMTQECNz46WEGgkAQTUrd2SSomWDh5o680BZbNW67HJUTqt4IXTNQHl76EfdeBw/Mw5qT9J+nYIjnFuQV83vTkCqjoPrQ5nBn9c3ZCMBAEIzEYAAcW1AYGOEUBArSWgFms/zdPnG+DmVUq1bTKlKwva0jUBZRyvk3SEpHkF2TStuVejPiDpHEmO5ufzU10qCKjqvHm9pAeFM4PVjcpIEIDAUAIIKC4MCHSMAALqXw5ND9WmWqWzNU871e7mVBcnU9qhBDu6KKDuH5LWblECnyZ2cYWkX0g6XdLHJXmVqgsFAVWdFy3AHyHp4uqGZCQIQGA2Aggorg0IdIwAAmoNAXWInqV5+qASrd8AN38pWaYnlWBHFwWUsTiq3dNK4NP0LlaEwBNT2Xx/Kcnnp7w9q40FAVWd134raTdJl1Q3JCNBAAIIKK4BCPSEAAJq2tHp87S1NtQ5SnTP2l2fyudjXptM6W0l2NJVAXU7ST+RtFUJjNrQhYXUr8N5qS9mD8dnS1reBsPXsBEBVZ3Dzs+ulT0l/aO6IRkJAhBAQHENQKAnBBBQUnqQNtMinSnpgQ1x+y1K9ZRkSieXYE9XBZTR+IH8sA6ehYpx+wWSXh+2Mjppr0V30wsCqjoPfUvSYzt4jq46gowEgRIJsIWvRJh0BYEmEOi7gEoP0lZaqCklekpjHsTTQeCIhydT+k0J10iXBdS/ZZHGTsm289W/aliCo8bswomFvxSS9f4wE1WrxuynimYIqCooT49xahbuf58s4MrK6oZkJAhAYDYCCCiuDQh0jECfBVR6sO6j+fqGkoZtA0v1M01px6ScVYUuCyj/Ne6a/Xwji8rX9+8nr0D9QJKTp/q/TSwIqOq88glJz6puOEaCAATmItD3LyiuDgh0jkDfBFTq0NdLdC9pkCj3BUq0TeOcmmppMiUHDSijdF1AmZHDmns726IygLW8j1skefvWidIgh9hlDZoPAqo6Z7xD0qurG46RIAABBBTXAAR6RKBPAio9SP+hhYOH7cdJ2khJA1ctUl2jG7RdcoJuLuky7IOA2kjSlzPh8KiSmHWhG2/lczj0N0v6oCQLq7oLAqo6D7wk5BSrbkRGggAEZiXAChQXBwQ6RqCLAirdX/O1ubbRfN1W83RHpXqA5g0erh8gaWFjXTgdfe+YZEqLS7SxDwLKuO4YzgLtyHa+W109DnnuBL1HZYlVvxoS9JZ4eY3UFQJqJFyFKu8v6XOFeqAxBCBQGgEEVGko6QgCzSDQEAH1N6V67khE0sH60SIl2kCpNlSqbZVoeyWDB+k7S9pU0iZKtZmk9Rq52rTuhK9Vqv2SKZ01Eou5K/dFQJnCfUIwBQeXoNyagFekLpTkrV2frClqHwKquqvSSXS/W91wjAQBCMxFAAHF9QGBjhFoiIDqGNWxp/MtLdA+yft09dg9rNuwTwLKs3+MpA9Lun2JDLvW1RmS3h4esMvaKhrDCAEVQ6mcOneS9KdyuqIXCECgKAEEVFGCtIdAwwggoBrkkFV6dnK0Pl6yRX0TUMb30BBE4a4ls+xSdxbpX5H0sgqTrSKgqrmCvG1zgxYmWq6GDqNAoAYCCKgaoDMkBCZJAAE1Sboj9J3qXG2thySHyw8/ZZY+CqgZEWUxugNnoua8nLxKsSQk5J10oAkEVJl/2bP3ZZ96BYoCAQg0hAACqiGOwAwIlEUAAVUWyUL93KBVelpy9OCQf9mlrwLKHO8hDcLBE51v7qvqmuzc4Akh7PUkRRQCquy/7uH9fVPSbtUMxSgQgEAMAQRUDCXqQKBFBBBQDXBWqtN0k56aHK/rJmBNnwWUcW4h6SRJO5MnKvfq+pqkAyVdkltzvApNFlCOgOmfLpSPZuefnt+FiTAHCHSFAAKqK55kHhAIBBBQNV8KqW5Uol2TZTp3Qpb0XUAZq0PXvzDbyneEpK0mxLkL3Xr76HmS/iuEPi97Tk0WUBdnUTvfnZ0J82pc28svgh/bPg/sh0BnCCCgOuNKJgKBaQIIqFqvhNVK9bpkSm+boBUIqH/BvUNIuHtfSfMnyLztXV8ekk2XLeqbLKB+LOnxki5tu/OwHwIQaB4BBFTzfIJFEChEAAFVCF/Rxt9UqicnU7qyaEdztEdA3RrO1mGbmgMnOGcY32vrXjzeyvbrwOkHJV6bCKgSYdIVBCDQHgJ80bTHV1gKgSgCCKgoTOVXSpVqhR6YHDfYMjXJgoAaTnfL7HzUByQ9c5LwW963hdQDJJ1f0jwQUCWBpBsIQKBdBBBQ7fIX1kIglwACKhfRJCpcr9U6KDlKn5pE52v1iYCaG/IjJC2W9J/ZGZhNKvBH24bw1rb9JfmMUNGCgCpKkPYQgEArCSCgWuk2jIbA7AQQULVcHe/SMr06Uek5n4ZNBgGV7+IFkm4r6ahwDia/RX9qeBXqj9nZsZ0kOflukYKAKkKPthCAQGsJIKBa6zoMh8BwAgioSq8MRzn7vJbrhclxlUX7QkDFu9jfcY+U9AJJjyVi363AfSSs1N0cj3OdmgioAvBoCgEItJcAAqq9vsNyCAwlgICq6MLwmSfpZF2rZyQn6oaKRvUwCKjRYa8vyRH7HPr8pSEM+ui9dKuFhZNZHFtgWgioAvBoCgEItJcAAqq9vsNyCCCg6rsGVkk6K9sK9bxk2cSSlM42OwRUMb/fTtKLwta+e0tar1h3rW69InBwwt1xCgJqHGq0gQAEWk8AAdV6FzIBCNyaACtQE78inOvpeK3Wq5KjddXER1t3AARUcej+7ttO0oMkHRS2980r3m0re/hhEFFXjGE9AmoMaDSBAATaTwAB1X4fMgMI3IoAAmqiF8T1SvUJrdDLk+N040RHmr1zBFT54O8l6eXZquIuku7cs1Upb0X9f5LePgZWBNQY0GgCAQi0nwACqv0+ZAYQQEBVcQ2kukqpXq6V+kRynLz1qa6CgJoMeX8fOhHvA0Muqb0lbTiZoRrX67Uh2MZPR7QMATUiMKpDAALdIICA6oYfmQUE/kmAFajSL4aVSnWRVuuA5Gg5h07dBQFVjQd2kPQqSU8I0fu6flbqC5KeJmnlCHgRUCPAoioEINAdAgio7viSmUBgQAABVeqF4C17b9cqHZcco8tK7Xn8zhBQ47Mbp+W2YVXqMZKeLMlBKLpYfAZqj2yOF4wwOQTUCLCoCgEIdIcAAqo7vmQmEEBAlXcN+C38T7RKz0qO1q/L67aUnhBQpWAcqxMHmniupFdK+jdJiyR1KfjEmyRZFMUWBFQsKepBAAKdIoCA6pQ7mQwEWIEqfA2k+pFSfVgr9ekKk+OOYjYCahRak6lr4fTwsGKzl6SdOpJb6hJJDqjhM1ExBQEVQ4k6EIBA5wggoDrnUibUdwJs4Rv7CvDD45Jkmb40dg/VNERAVcN5lFF2zFaj3irJYqrtK1IHj5BcFwE1ylVCXQhAoDMEEFCdcSUTgcA0AQTUyFfCCq3Wq3WLPpp8WP8YuXX1DRBQ1TOPHfF+kp4kaU9JD5U0P7Zhg+p9MwjBWyJsQkBFQKIKBCDQPQIIqO75lBn1nAACasQLIJXz4HxVU9o3kVaP2LqO6gioOqiPNqYj9t0zC4P+jiCm2rQq9dcgoC6MmDICKgISVSAAge4RQEB1z6fMqOcEEFBjXQArlOolyZSOHqt1tY0QUNXyLjKahdMjJD1HkqP4Oc9U08tNkp6Rnev6coShCKgISFSBAAS6RwAB1T2fMqOeE0BAjXEBeBUq0d+0XPdLjpPDOTe5IKCa7J3hti2UdHtJB0laLGnTBk/BK7Kvz4JivCXCRgRUBCSqQAAC3SOAgOqeT5lRzwkgoApcAKku0Crt2aCcT8Mmg4Aq4OIGNHWC3ldL2kfSdg2wZ5gJJ0v6zwjbEFARkKgCAQh0jwACqns+ZUY9J9AIAZVqlaSrclyxmRL5zXzTynu1XK9OjtOKphkW7EFANdQxI5i1QJIDTrw5nDdq2nfxxZIs9PIKAiqPEJ9DAAKdJNC0m3YnITMpCFRJoBECSro4WTb3A1h6qPZTqo9J2qhKPrljpbpRq3VAcnRjw5kjoHKd2JoKjtLn7XKvkLRxg6z2C5DNM7uuy7EJAdUgp2EKBCBQHQEEVHWsGQkClRBoi4AyjHSJ3qJksJ2pWeGeU12mRHsmy3RBJU4bbRAE1Gi8ml7bq7AOMHGCpK0aZOyuWaLgcxBQDfIIpkAAAo0hgIBqjCswBALlEGiVgFqs7ZToTCW6dzmzL7WXr+pGPSM5PvctfKmDRnSGgIqA1MIqL8wE1LIsIe+ihthuez6EgGqINzADAhBoFAEEVKPcgTEQKE6gTQLKs02X6CFKdJokC4MmleVK9b/JlA5rklGBU975skmbfJEkr1A4ZxClHALOHeUw+s8rp7vCvfh8lrcXzlXYwlcYMx1AAAJtJICAaqPXsBkCcxBom4AaiKjFeoHm6ZjsUL0P1zerrNTeyTE6vUFGsQLVIGeUbMqGWajzSyRtVnK/43Tn84nPRUCNg442EIBA1wkgoLruYebXOwKtFFAHaFPdRp9Qoic0zmGpLtQK7ZscJ6+6NKEgoJrghcnZ4LNQecJlcqP/q+dTJT0OAVUFasaAAATaRgAB1TaPYS8Ecgi0UUB5SumB2k4b6TdKtEnjnJzqc8mU9m+IXQiohjhiQmY42a5XY+v+fnYACW/TnKuwhW9CFwHdQgACzSZQ9w262XSwDgItJNBWATUQUYfoiZqvjzTuPFSqVIn+R5fqnclJgxxXdRYEVJ30Jz+2E9ieJMlnouosP5L0YARUnS5gbAhAoKkEEFBN9Qx2QWBMAq0WULtpge6t9ynRkjGnP7lmqa5RqsclR+m7kxskquc+CShHpFseRaU7lR6ZCZdTGpAfzSH874uA6s6FxUwgAIHyCCCgymNJTxBoBIE2CygDTJ+nrbXhILR53sNb9bxTfU8rtE9ynK6ofvB/jtgXAWX/f0nSByR9OCKpa40uKXXoh0uDqJR1b2U9T9IDEFCl+pbOIACBjhBAQHXEkUwDAjME2i6gBiJqsXZUotOVaJtGeXZ6K98XtFzPSI7Tipps64OA2ljSFyXtKekWST+Q9CJJv6qJeZXD7izJARzMoM7ybUm7IKDqdAFjQwACTSWAgGqqZ7ALAmMS6ISAOlzzdLleoUTvGBPDJJv5gf6QZNngrFYdpQ8C6sAQSGHNc0DOOfXfkr7a8dWovYN4XL+Oi2uNMU+W5PNYc5UmB5H4maQDJF1eM8c6h79O0o11GsDYEOgqAQRUVz3LvHpLoAsCys5LF2vjwWpPokc30JmXaLkeWVNo864LqLtI+k6WVHbbIX63ePW2vv/KxNT1DbwuyjDpOdJAnM8ro7MCfXjbpDm3VUDdJOkPklYWYND2pv8r6ZNtnwT2Q6CJJeOhFAAAIABJREFUBBBQTfQKNkGgAIGuCKiBiDpIG2qRzlequympPazz2l75lZZrj+Q4/a2Au8Zp2mUB5QSyFki75YDxqsKLszM6/yfphnEgNrjNsmzVpAlBVA7LRNwbWyygGuziykzz38iRlY3GQBDoEQEEVI+czVT7QaBLAmogohbrAM3T8ZIcka1JZbVSLUum9JKKjeqygDpE0nskxWxfs3ByriI/6DvkdhfKfEm/k3TnBkzmmZI+hYBqgCfGNwEBNT47WkJgTgIIKC4QCHSMQOcElBOKLtGJSvSMBmxrWvtqWa6V2iM5ZrDlrKrSVQG1taSfSyMHDvFWvndJ8srNVZJWV+WIksfx9/Ghkt5fcr/jdrejpJ8ioMbF14h2CKhGuAEjukgAAdVFrzKnXhPomoCyM9NnayNtolM1LzcqWB2+v1LS3skynVvR4F0UUJtK+lx29qnIebffhgS0x0j6c0W+KHOYh4T8T1uU2emYffn8kK+zvBxcTQ4iMebUO9UMAdUpdzKZJhFAQDXJG9gCgRIIdFFADUTUEj1K0ueVyOdkmlVSnaLfa7/k1EHI7UmXLgqog8IK0sIS4Hlrn8/uHBUikLVhRcrRBs+Q5CS6TSheefIKVF5BQOURqvdzBFS9/Bm9wwQQUB12LlPrJ4HOCqjp0OYvVaJ3NnAr30qlequmdHgipRO+8romoG4bou6Vfe7nLyGfkvNJfbPB4ZwflK32vE/Sw+Ttqs0oJ0h6XoQpCKgISDVWQUDVCJ+hu02gKTfrblNmdhCokEBXBdQMwnSJPqVET68QafxQqfZLpgYJYCdZuiSgHDTBgSAePkFgFrR/kvSmENLZ29OaUvaXdFzYLtcUm8xraVjBy7MJAZVHqN7PEVD18mf0DhNAQHXYuUytnwQ6L6AO0j21SKdLumPjPJzqZ1qlfZNjBvlnJlW6IqD8/eM8Q1OSyti6F8Pb4c/PkvRdSU60+otMLFzhHaIxjUuoY8F410w07iENgqLsUkKfZXdxTRY84kmSvhHRMQIqAlKNVRBQNcJn6G4TQEB127/MrocEui6g7NJ0iZ40SLLbtJIqVaIzk2V6zARN64qA8jx81uYONWxd87moFZJulnShpJNDAIe8qHPjunWrIEpekAXLuI+kDRq4DXVmbhcFYReT3wwBNe4VUU07BFQ1nBmlhwQQUD10OlPuNoE+CKggot6tZJBMdUHjPLpar9Y2ek9yuFZOwLYuCCgLiE9L2mcCfIp06TDoXpX6tTRYRfyjJK/IXBsS9lpwOTLdqrBq5WvPq0peQfOcNszyWDmi4JZBGN4zCKa7VbjKVmT+buvcT84BFVMQUDGU6quDgKqPPSN3nAACquMOZnr9I9AbAbVY22mevhYeUJvm6EuVat9kSj+YgGFdEFBeifHZn3kT4FNml16pcmRF/3jFyoJ4Rjx525/t9/fojIiyoHJEPf+09ft1d0lnR0JEQEWCqqkaAqom8AzbfQJtvcF33zPMEAJjEuiLgDKedKn2UKovNDK0ubenrdRjkmN02ZiunK1Z2wWUo+2dIuleJXOhu+IEzpd0/xG6QUCNAKuGqgioGqAzZD8IIKD64Wdm2SMCfRJQAxG1RIco0fsbuUUq1Ym6TC9KTlKZkd/aLKD8neOEuQ5SwPdPs+5LXm1zUI+PjGAWAmoEWDVURUDVAJ0h+0GAL7B++JlZ9ohA7wTUYm2seTo+CwbgkNBNKzcp1dJkamBfWaWtAsrfN84t9OGyQNBPqQQuzvJlefuez33FFgRULKl66iGg6uHOqD0ggIDqgZOZYr8I9E1A2bvpEt19kIw1kaOdNauk+rtSPTY5Sj8pybC2CihH23P4ebbulXQhlNyNw8m/JJzxiu0aARVLqp56CKh6uDNqDwggoHrgZKbYLwJ9FFADEbVUj5X0+RANrVlOT/UrXaedk4/pyhIMa6OAcpCFY8IWsRIQ0EXJBBxl0BEDY0KXrzk0AqpkR5TcHQKqZKB0B4EZAggorgUIdIxAbwXU/lqkbfWO8Ba9WV5NtUqp3pscpVeWYFgbBdSLQsJcCylKswg4quASSceOYRYCagxoFTZBQFUIm6H6RQAB1S9/M9seEOirgBqsQh2izTVfv5S0bQNdvVqr9fjkKJ1W0La2CShH3TtL0g4F503zyRA4Txokfh5ndRQBNRmflNUrAqoskvQDgbUIIKC4JCDQMQJ9FlADEXWQ7q9F+r8sz9BtG+faVFdotf4zOVrfL2Bb2wTUh0LwiKbnfCrgktY2dV6r/aTB38s4BQE1DrXq2iCgqmPNSD0jgIDqmcOZbvcJ9F1ADUTUUr0qS2b6toYmaj0jWaa9ClyJbRJQz5T0iQJzpelkCbwlSw78ugJDIKAKwKugKQKqAsgM0U8CCKh++p1Zd5gAAkpKX6rbaIU+q0SPbqCrVyvVEbpMb0lOks+fjFraJKCeleV7OoLte6O6uJL63kr6NEkOIDFuQUCNS66adgioajgzSg8JIKB66HSm3G0CCKhp/6YHaUMt1C+U6E4N9LiDSjwrmdKnx7CtTQLK0zP/L0raaYy50mQyBJzY+d6SnPupSEFAFaE3+bYIqMkzZoSeEkBA9dTxTLu7BBBQ//JtulReATmukaHNpQu0Wo9JjtLfR7wa2yagPL0tJL1J0gGSNhtxvlQvl4BDlT87BPYo2jMCqijBybZHQE2WL733mAACqsfOZ+rdJICAWkNAHar1tFrHKtFzG+ftNNvIl+g0baV9ksPlw/yxpY0CynNbJOmJkk5oqKCN5d/2ei/IVgU/4kXaEiaCgCoB4gS7QEBNEC5d95sAAqrf/mf2HSSAgLq1U9MDtb420jmSHqhETbznvU5b6e0jiKi2CqgZx9xL0pGS9sjORzXRHx28KwymdJUkB414d4kTRECVCHMCXSGgJgCVLiFgAnx5cR1AoGMEEFDrOjQ9VHsqHZw32rKB7r5cq7TPCKHN2y6g7IKtQ2hzR4DbpIE+6ZpJN0jyw/TxJU8MAVUy0JK7Q0CVDJTuIDBDAAHFtQCBjhFAQA13aLpYhynR65VofuNcnuoipdo58jxUFwTUjAseLumdWR6iB2Rh59drnF/ab5C36fnM00uzoBEnTWA6CKgJQC2xSwRUiTDpCgJrEkBAcT1AoGMEEFCzCChv5dt4cPbj6Y10eaoTda0OSU6UVwvmKl0SUJ6n52OfHC5p20b6pr1G/VLSwdl2SW9hnURBQE2Canl9IqDKY0lPELgVAQQUFwQEOkYAATW7Q9PFuqsSndnI0OapbtEqHZAco8/3TEDNTHdzScdI2lvSph37s6x6Oisyjt+XtG84+zSp8RFQkyJbTr8IqHI40gsE1iGAgOKigEDHCCCg5hBQPve5WM9Uoo82dCvfB5IpvaSnAsrTdqQ+b+dzpLhnEq1vrJvTFVkrr+Z9Itu6d/VYPcQ3QkDFs6qjJgKqDuqM2QsCCKheuJlJ9okAAirf2+lSvU/SoZLm5deusEaqvguoNWE78a799BDOR0Vdgw6F/zNJT5b0h6gWxSshoIoznGQPCKhJ0qXvXhNAQPXa/Uy+iwQQUPleTQ/SVlqoU5ToQfm1K6yBgFob9sIs4esukp4k6SnZFr/tKvRGm4Y6L4jNL0m6rkLDEVAVwh5jKATUGNBoAoEYAgioGErUgUCLCCCg4pyVHqJdNV9nx9WuqBYCai7QPhd1mKRD2Nr3T0zXhtxO75FGSsZc1gWNgCqL5GT6QUBNhiu9QoA8UFwDEOgaAQRUvEfTJXpldhbqTY3ZIoaAinHebcOK1F6Sdpbk4BN9KqvCVr1TQl6n39c4eQRUjfAjhkZARUCiCgTGIcAK1DjUaAOBBhNAQMU7J91fG2gbfUzJYHtY/QUBNYoPvL1vQ0nPkvTfku48SuMW1nVOp3MlvVLSDyXd1IA5IKAa4IQ5TEBANds/WNdiAgioFjsP0yEwjAACarTrIl2q/8jO2ZwlaevRWk6gNgJqXKhOjvwISXtKerCk+0jySlWbv+MsmK7McmT9StJ3JX1B0o9r2qo3m18QUONesdW0Q0BVw5lRekigzV8uPXQXU4ZAPoF0sXbUPC1TMggJXU9ZrUuSKT2xnsFHHzVdokcq0TuV1PzAvUqfSY7Su3NmsLGkr48+y1Jb/FXSQZIuL7XXcjpbX9JmYUVq/2y7237h3235vrs5CPpPSfpmCEXu5MoWVE0rCKimeeTW9iCgmu0frGsxgbZ8obQYMaZDAAIQgECNBPw9t0NYmfLq1L0lbSVpy/DfDWpYqbIYslCyAL0s/Jwv6ZywPW/S+ZvKcgcCqiySk+kHATUZrvQKgZrftuIACEAAAhCAQLUELJhuE1apHIDi9pLumiWevZuku2SBGe4YwqV7JauM4qAPl0ryqt1vswTBvwnb8v4s6R/h5ypJK8oYrOI+EFAVAx9xOATUiMCoDoFYAqxAxZKiHgQgAAEI9ImAxZXPUXk74MyPt09aWDmAhc9dLZC0PIgfJ7J1YIdrwo9XkbzCdIkki6guFgRUs72KgGq2f7CuxQQQUC12HqZDAAIQgAAEaiSAgKoRfsTQCKgISFSBwDgEEFDjUKMNBCAAAQhAAAIIqGZfAwioZvsH61pMAAHVYudhOgQgAAEIQKBGAgioGuFHDI2AioBEFQiMQwABNQ412kAAAhCAAAQggIBq9jWAgGq2f7CuxQQQUC12HqZDAAIQgAAEaiTgXG9PrnF8hp6bwImSzgASBCBQPgEEVPlM6RECEIAABCAAAQhAAAIQ6CgBBFRHHcu0IAABCEAAAhCAAAQgAIHyCSCgymdKjxCAAAQgAAEIQAACEIBARwkgoDrqWKYFAQhAAAIQgAAEIAABCJRPAAFVPlN6hAAEIAABCEAAAhCAAAQ6SgAB1VHHMi0IQAACEIAABCAAAQhAoHwCCKjymdIjBCAAAQhAAAIQgAAEINBRAgiojjqWaUEAAhCAAAQgAAEIQAAC5RNAQJXPlB4hAAEIQAACEIAABCAAgY4SQEB11LFMCwIQgAAEIAABCEAAAhAonwACqnym9AgBCEAAAhCAAAQgAAEIdJQAAqqjjmVaEIAABCAAAQhAAAIQgED5BBBQ5TOlRwhAAAIQgAAEIAABCECgowQQUB11LNOCAAQgAAEIQAACEIAABMongIAqnyk9QgACEIAABCAAAQhAAAIdJYCA6qhjmRYEIAABCEAAAhCAAAQgUD4BBFT5TOkRAhCAAAQgAAEIQAACEOgoAQRURx3LtCAAAQhAAAIQgAAEIACB8gkgoMpnSo8QgAAEIAABCEAAAhCAQEcJIKA66limBQEIQAACEIAABCAAAQiUTwABVT5TeoQABCAAAQhAAAIQgAAEOkoAAdVRxzItCEAAAhCAAAQgAAEIQKB8Agio8pnSIwQgAAEIQAACEIAABCDQUQIIqI46lmlBAAIQgAAEIAABCEAAAuUTQECVz5QeIQABCEAAAhCAAAQgAIGOEkBAddSxTAsCEIAABCAAAQhAAAIQKJ8AAqp8pvQIAQhAAAIQgAAEIAABCHSUAAKqo45lWhCAAAQgAAEIQAACEIBA+QQQUOUzpUcIQAACEIAABCAAAQhAoKMEEFAddSzTggAEIAABCEAAAhCAAATKJ4CAKp8pPUIAAhCAAAQgAAEIQAACHSWAgOqoY5kWBCAAAQhAAAIQgAAEIFA+AQRU+UzpEQIQgAAEIAABCEAAAhDoKAEEVEcdy7QgAAEIQAACEIAABCAAgfIJIKDKZ0qPEIAABCAAAQhAAAIQgEBHCSCgOupYpgUBCEAAAhCAAAQgAAEIlE8AAVU+U3qEAAQgAAEIQAACEIAABDpKAAHVUccyLQhAAAIQgAAEIAABCECgfAIIqPKZ0iMEIAABCEAAAhCAAAQg0FECCKiOOpZpQQACEIAABCAAAQhAAALlE0BAlc+UHiEAAQhAAAIQgAAEIACBjhJAQHXUsUwLAhCAAAQgAAEIQAACECifAAKqfKb0CAEIQAACEIAABCAAAQh0lAACqqOOZVoQgAAEIAABCEAAAhCAQPkEEFDlM6VHCEAAAhCAAAQgAAEIQKCjBBBQHXUs04IABCAAAQhAAAIQgAAEyieAgCqfKT1CAAIQgAAEIAABCEAAAh0lgIDqqGOZFgQgAAEIQAACEIAABCBQPgEEVPlM6RECEIAABCAAAQhAAAIQ6CgBBFRHHcu0IAABCEAAAhCAAAQgAIHyCSCgymdKjxCAAAQgAAEIQAACEIBARwkgoDrqWKYFAQhAAAIQgAAEIAABCJRPAAFVPlN6/P/t1zENAAAAwjD/rjHBtdQACeWCAAECBAgQIECAAIGogAMVHVYtAgQIECBAgAABAgT+Ag7U31QiAQIECBAgQIAAAQJRAQcqOqxaBAgQIECAAAECBAj8BRyov6lEAgQIECBAgAABAgSiAg5UdFi1CBAgQIAAAQIECBD4CzhQf1OJBAgQIECAAAECBAhEBRyo6LBqESBAgAABAgQIECDwF3Cg/qYSCRAgQIAAAQIECBCICjhQ0WHVIkCAAAECBAgQIEDgL+BA/U0lEiBAgAABAgQIECAQFXCgosOqRYAAAQIECBAgQIDAX8CB+ptKJECAAAECBAgQIEAgKuBARYdViwABAgQIECBAgACBv4AD9TeVSIAAAQIECBAgQIBAVMCBig6rFgECBAgQIECAAAECfwEH6m8qkQABAgQIECBAgACBqIADFR1WLQIECBAgQIAAAQIE/gIO1N9UIgECBAgQIECAAAECUQEHKjqsWgQIECBAgAABAgQI/AUcqL+pRAIECBAgQIAAAQIEogIOVHRYtQgQIECAAAECBAgQ+As4UH9TiQQIECBAgAABAgQIRAUcqOiwahEgQIAAAQIECBAg8BdwoP6mEgkQIECAAAECBAgQiAo4UNFh1SJAgAABAgQIECBA4C/gQP1NJRIgQIAAAQIECBAgEBVwoKLDqkWAAAECBAgQIECAwF/AgfqbSiRAgAABAgQIECBAICrgQEWHVYsAAQIECBAgQIAAgb+AA/U3lUiAAAECBAgQIECAQFTAgYoOqxYBAgQIECBAgAABAn8BB+pvKpEAAQIECBAgQIAAgaiAAxUdVi0CBAgQIECAAAECBP4CDtTfVCIBAgQIECBAgAABAlEBByo6rFoECBAgQIAAAQIECPwFHKi/qUQCBAgQIECAAAECBKICDlR0WLUIECBAgAABAgQIEPgLOFB/U4kECBAgQIAAAQIECEQFHKjosGoRIECAAAECBAgQIPAXcKD+phIJECBAgAABAgQIEIgKOFDRYdUiQIAAAQIECBAgQOAv4ED9TSUSIECAAAECBAgQIBAVcKCiw6pFgAABAgQIECBAgMBfwIH6m0okQIAAAQIECBAgQCAq4EBFh1WLAAECBAgQIECAAIG/gAP1N5VIgAABAgQIECBAgEBUwIGKDqsWAQIECBAgQIAAAQJ/AQfqbyqRAAECBAgQIECAAIGogAMVHVYtAgQIECBAgAABAgT+Ag7U31QiAQIECBAgQIAAAQJRAQcqOqxaBAgQIECAAAECBAj8BRyov6lEAgQIECBAgAABAgSiAg5UdFi1CBAgQIAAAQIECBD4CzhQf1OJBAgQIECAAAECBAhEBRyo6LBqESBAgAABAgQIECDwF3Cg/qYSCRAgQIAAAQIECBCICjhQ0WHVIkCAAAECBAgQIEDgL+BA/U0lEiBAgAABAgQIECAQFXCgosOqRYAAAQIECBAgQIDAX8CB+ptKJECAAAECBAgQIEAgKuBARYdViwABAgQIECBAgACBv4AD9TeVSIAAAQIECBAgQIBAVMCBig6rFgECBAgQIECAAAECfwEH6m8qkQABAgQIECBAgACBqIADFR1WLQIECBAgQIAAAQIE/gIO1N9UIgECBAgQIECAAAECUQEHKjqsWgQIECBAgAABAgQI/AUcqL+pRAIECBAgQIAAAQIEogIOVHRYtQgQIECAAAECBAgQ+As4UH9TiQQIECBAgAABAgQIRAUcqOiwahEgQIAAAQIECBAg8BdwoP6mEgkQIECAAAECBAgQiAo4UNFh1SJAgAABAgQIECBA4C/gQP1NJRIgQIAAAQIECBAgEBVwoKLDqkWAAAECBAgQIECAwF/AgfqbSiRAgAABAgQIECBAICrgQEWHVYsAAQIECBAgQIAAgb+AA/U3lUiAAAECBAgQIECAQFTAgYoOqxYBAgQIECBAgAABAn8BB+pvKpEAAQIECBAgQIAAgaiAAxUdVi0CBAgQIECAAAECBP4CDtTfVCIBAgQIECBAgAABAlEBByo6rFoECBAgQIAAAQIECPwFHKi/qUQCBAgQIECAAAECBKICDlR0WLUIECBAgAABAgQIEPgLOFB/U4kECBAgQIAAAQIECEQFHKjosGoRIECAAAECBAgQIPAXcKD+phIJECBAgAABAgQIEIgKOFDRYdUiQIAAAQIECBAgQOAv4ED9TSUSIECAAAECBAgQIBAVcKCiw6pFgAABAgQIECBAgMBfwIH6m0okQIAAAQIECBAgQCAq4EBFh1WLAAECBAgQIECAAIG/gAP1N5VIgAABAgQIECBAgEBUwIGKDqsWAQIECBAgQIAAAQJ/AQfqbyqRAAECBAgQIECAAIGogAMVHVYtAgQIECBAgAABAgT+Ag7U31QiAQIECBAgQIAAAQJRAQcqOqxaBAgQIECAAAECBAj8BRyov6lEAgQIECBAgAABAgSiAg5UdFi1CBAgQIAAAQIECBD4CzhQf1OJBAgQIECAAAECBAhEBRyo6LBqESBAgAABAgQIECDwF3Cg/qYSCRAgQIAAAQIECBCICjhQ0WHVIkCAAAECBAgQIEDgL+BA/U0lEiBAgAABAgQIECAQFXCgosOqRYAAAQIECBAgQIDAX8CB+ptKJECAAAECBAgQIEAgKuBARYdViwABAgQIECBAgACBv4AD9TeVSIAAAQIECBAgQIBAVMCBig6rFgECBAgQIECAAAECfwEH6m8qkQABAgQIECBAgACBqIADFR1WLQIECBAgQIAAAQIE/gIO1N9UIgECBAgQIECAAAECUQEHKjqsWgQIECBAgAABAgQI/AUcqL+pRAIECBAgQIAAAQIEogIOVHRYtQgQIECAAAECBAgQ+As4UH9TiQQIECBAgAABAgQIRAUcqOiwahEgQIAAAQIECBAg8BdwoP6mEgkQIECAAAECBAgQiAo4UNFh1SJAgAABAgQIECBA4C/gQP1NJRIgQIAAAQIECBAgEBVwoKLDqkWAAAECBAgQIECAwF/AgfqbSiRAgAABAgQIECBAICrgQEWHVYsAAQIECBAgQIAAgb+AA/U3lUiAAAECBAgQIECAQFTAgYoOqxYBAgQIECBAgAABAn8BB+pvKpEAAQIECBAgQIAAgaiAAxUdVi0CBAgQIECAAAECBP4CDtTfVCIBAgQIECBAgAABAlEBByo6rFoECBAgQIAAAQIECPwFHKi/qUQCBAgQIECAAAECBKICDlR0WLUIECBAgAABAgQIEPgLOFB/U4kECBAgQIAAAQIECEQFHKjosGoRIECAAAECBAgQIPAXcKD+phIJECBAgAABAgQIEIgKOFDRYdUiQIAAAQIECBAgQOAv4ED9TSUSIECAAAECBAgQIBAVcKCiw6pFgAABAgQIECBAgMBfwIH6m0okQIAAAQIECBAgQCAq4EBFh1WLAAECBAgQIECAAIG/gAP1N5VIgAABAgQIECBAgEBUwIGKDqsWAQIECBAgQIAAAQJ/AQfqbyqRAAECBAgQIECAAIGogAMVHVYtAgQIECBAgAABAgT+Ag7U31QiAQIECBAgQIAAAQJRAQcqOqxaBAgQIECAAAECBAj8BRyov6lEAgQIECBAgAABAgSiAg5UdFi1CBAgQIAAAQIECBD4CzhQf1OJBAgQIECAAAECBAhEBRyo6LBqESBAgAABAgQIECDwF3Cg/qYSCRAgQIAAAQIECBCICjhQ0WHVIkCAAAECBAgQIEDgL+BA/U0lEiBAgAABAgQIECAQFXCgosOqRYAAAQIECBAgQIDAX8CB+ptKJECAAAECBAgQIEAgKuBARYdViwABAgQIECBAgACBv4AD9TeVSIAAAQIECBAgQIBAVMCBig6rFgECBAgQIECAAAECfwEH6m8qkQABAgQIECBAgACBqIADFR1WLQIECBAgQIAAAQIE/gIO1N9UIgECBAgQIECAAAECUQEHKjqsWgQIECBAgAABAgQI/AUcqL+pRAIECBAgQIAAAQIEogIOVHRYtQgQIECAAAECBAgQ+As4UH9TiQQIECBAgAABAgQIRAUcqOiwahEgQIAAAQIECBAg8BdwoP6mEgkQIECAAAECBAgQiAo4UNFh1SJAgAABAgQIECBA4C/gQP1NJRIgQIAAAQIECBAgEBVwoKLDqkWAAAECBAgQIECAwF/AgfqbSiRAgAABAgQIECBAICrgQEWHVYsAAQIECBAgQIAAgb+AA/U3lUiAAAECBAgQIECAQFTAgYoOqxYBAgQIECBAgAABAn8BB+pvKpEAAQIECBAgQIAAgaiAAxUdVi0CBAgQIECAAAECBP4CDtTfVCIBAgQIECBAgAABAlEBByo6rFoECBAgQIAAAQIECPwFHKi/qUQCBAgQIECAAAECBKICDlR0WLUIECBAgAABAgQIEPgLOFB/U4kECBAgQIAAAQIECEQFHKjosGoRIECAAAECBAgQIPAXcKD+phIJECBAgAABAgQIEIgKOFDRYdUiQIAAAQIECBAgQOAv4ED9TSUSIECAAAECBAgQIBAVcKCiw6pFgAABAgQIECBAgMBfwIH6m0okQIAAAQIECBAgQCAq4EBFh1WLAAECBAgQIECAAIG/gAP1N5VIgAABAgQIECBAgEBUwIGKDqsWAQIECBAgQIAAAQJ/AQfqbyqRAAECBAjiURMFAAAIKklEQVQQIECAAIGogAMVHVYtAgQIECBAgAABAgT+Ag7U31QiAQIECBAgQIAAAQJRAQcqOqxaBAgQIECAAAECBAj8BRyov6lEAgQIECBAgAABAgSiAg5UdFi1CBAgQIAAAQIECBD4CzhQf1OJBAgQIECAAAECBAhEBRyo6LBqESBAgAABAgQIECDwF3Cg/qYSCRAgQIAAAQIECBCICjhQ0WHVIkCAAAECBAgQIEDgL+BA/U0lEiBAgAABAgQIECAQFXCgosOqRYAAAQIECBAgQIDAX8CB+ptKJECAAAECBAgQIEAgKuBARYdViwABAgQIECBAgACBv4AD9TeVSIAAAQIECBAgQIBAVMCBig6rFgECBAgQIECAAAECfwEH6m8qkQABAgQIECBAgACBqIADFR1WLQIECBAgQIAAAQIE/gIO1N9UIgECBAgQIECAAAECUQEHKjqsWgQIECBAgAABAgQI/AUcqL+pRAIECBAgQIAAAQIEogIOVHRYtQgQIECAAAECBAgQ+As4UH9TiQQIECBAgAABAgQIRAUcqOiwahEgQIAAAQIECBAg8BdwoP6mEgkQIECAAAECBAgQiAo4UNFh1SJAgAABAgQIECBA4C/gQP1NJRIgQIAAAQIECBAgEBVwoKLDqkWAAAECBAgQIECAwF/AgfqbSiRAgAABAgQIECBAICrgQEWHVYsAAQIECBAgQIAAgb+AA/U3lUiAAAECBAgQIECAQFTAgYoOqxYBAgQIECBAgAABAn8BB+pvKpEAAQIECBAgQIAAgaiAAxUdVi0CBAgQIECAAAECBP4CDtTfVCIBAgQIECBAgAABAlEBByo6rFoECBAgQIAAAQIECPwFHKi/qUQCBAgQIECAAAECBKICDlR0WLUIECBAgAABAgQIEPgLOFB/U4kECBAgQIAAAQIECEQFHKjosGoRIECAAAECBAgQIPAXcKD+phIJECBAgAABAgQIEIgKOFDRYdUiQIAAAQIECBAgQOAv4ED9TSUSIECAAAECBAgQIBAVcKCiw6pFgAABAgQIECBAgMBfwIH6m0okQIAAAQIECBAgQCAq4EBFh1WLAAECBAgQIECAAIG/gAP1N5VIgAABAgQIECBAgEBUwIGKDqsWAQIECBAgQIAAAQJ/AQfqbyqRAAECBAgQIECAAIGogAMVHVYtAgQIECBAgAABAgT+Ag7U31QiAQIECBAgQIAAAQJRAQcqOqxaBAgQIECAAAECBAj8BRyov6lEAgQIECBAgAABAgSiAg5UdFi1CBAgQIAAAQIECBD4CzhQf1OJBAgQIECAAAECBAhEBRyo6LBqESBAgAABAgQIECDwF3Cg/qYSCRAgQIAAAQIECBCICjhQ0WHVIkCAAAECBAgQIEDgL+BA/U0lEiBAgAABAgQIECAQFXCgosOqRYAAAQIECBAgQIDAX8CB+ptKJECAAAECBAgQIEAgKuBARYdViwABAgQIECBAgACBv4AD9TeVSIAAAQIECBAgQIBAVMCBig6rFgECBAgQIECAAAECfwEH6m8qkQABAgQIECBAgACBqIADFR1WLQIECBAgQIAAAQIE/gIO1N9UIgECBAgQIECAAAECUQEHKjqsWgQIECBAgAABAgQI/AUcqL+pRAIECBAgQIAAAQIEogIOVHRYtQgQIECAAAECBAgQ+As4UH9TiQQIECBAgAABAgQIRAUcqOiwahEgQIAAAQIECBAg8BdwoP6mEgkQIECAAAECBAgQiAo4UNFh1SJAgAABAgQIECBA4C/gQP1NJRIgQIAAAQIECBAgEBVwoKLDqkWAAAECBAgQIECAwF/AgfqbSiRAgAABAgQIECBAICrgQEWHVYsAAQIECBAgQIAAgb+AA/U3lUiAAAECBAgQIECAQFTAgYoOqxYBAgQIECBAgAABAn8BB+pvKpEAAQIECBAgQIAAgaiAAxUdVi0CBAgQIECAAAECBP4CDtTfVCIBAgQIECBAgAABAlEBByo6rFoECBAgQIAAAQIECPwFHKi/qUQCBAgQIECAAAECBKICDlR0WLUIECBAgAABAgQIEPgLOFB/U4kECBAgQIAAAQIECEQFHKjosGoRIECAAAECBAgQIPAXcKD+phIJECBAgAABAgQIEIgKOFDRYdUiQIAAAQIECBAgQOAv4ED9TSUSIECAAAECBAgQIBAVcKCiw6pFgAABAgQIECBAgMBfwIH6m0okQIAAAQIECBAgQCAq4EBFh1WLAAECBAgQIECAAIG/gAP1N5VIgAABAgQIECBAgEBUwIGKDqsWAQIECBAgQIAAAQJ/AQfqbyqRAAECBAgQIECAAIGogAMVHVYtAgQIECBAgAABAgT+Ag7U31QiAQIECBAgQIAAAQJRAQcqOqxaBAgQIECAAAECBAj8BRyov6lEAgQIECBAgAABAgSiAg5UdFi1CBAgQIAAAQIECBD4CzhQf1OJBAgQIECAAAECBAhEBRyo6LBqESBAgAABAgQIECDwF3Cg/qYSCRAgQIAAAQIECBCICjhQ0WHVIkCAAAECBAgQIEDgL+BA/U0lEiBAgAABAgQIECAQFXCgosOqRYAAAQIECBAgQIDAX8CB+ptKJECAAAECBAgQIEAgKuBARYdViwABAgQIECBAgACBv4AD9TeVSIAAAQIECBAgQIBAVMCBig6rFgECBAgQIECAAAECfwEH6m8qkQABAgQIECBAgACBqIADFR1WLQIECBAgQIAAAQIE/gIO1N9UIgECBAgQIECAAAECUQEHKjqsWgQIECBAgAABAgQI/AUGv/F7c+jpeXAAAAAASUVORK5CYII=;" vertex="1" parent="1">
          <mxGeometry x="390" y="480" width="508.81" height="720" as="geometry" />
        </mxCell>
        <mxCell id="bOFY-O5MOT7gPgmoRCPy-2" value="&lt;div style=&quot;line-height: 80%;&quot;&gt;&lt;div&gt;&lt;font style=&quot;line-height: 80%; font-size: 240px;&quot;&gt;&lt;b&gt;ROS2&lt;/b&gt;&lt;/font&gt;&lt;/div&gt;&lt;div&gt;&lt;font style=&quot;line-height: 80%; font-size: 150px;&quot;&gt;&lt;b style=&quot;&quot;&gt;COURSE&lt;/b&gt;&lt;/font&gt;&lt;/div&gt;&lt;/div&gt;" style="text;html=1;align=center;verticalAlign=middle;whiteSpace=wrap;rounded=0;" vertex="1" parent="1">
          <mxGeometry x="750" y="640" width="740" height="400" as="geometry" />
        </mxCell>
      </root>
    </mxGraphModel>
  </diagram>
</mxfile>
